{"glyphs":{"0":{"ha":758,"x_min":-25,"x_max":732,"o":"m 686 343 q 399 10 591 118 q 237 -39 312 -39 q 43 53 117 -39 q -25 262 -25 138 q 24 460 -25 354 q 138 633 69 557 q 481 821 311 821 q 662 745 591 821 q 732 550 732 669 q 686 343 732 452 m 319 719 l 309 719 q 186 549 233 646 q 136 348 136 446 q 203 149 136 227 q 393 66 275 66 l 399 68 l 404 68 q 569 458 569 229 q 498 643 569 568 q 319 719 428 719 z "},"1":{"ha":758,"x_min":113,"x_max":626,"o":"m 304 1 q 113 -57 261 -6 q 366 608 199 164 q 408 728 395 690 q 232 681 334 694 l 241 739 q 626 903 441 781 l 304 1 z "},"2":{"ha":758,"x_min":-115,"x_max":692,"o":"m 181 138 l 390 119 l 422 119 q 564 157 510 119 l 604 151 l 444 -35 l 44 12 l -103 -34 l -115 -8 l -92 17 l 22 153 l 79 147 q 387 368 269 240 q 505 598 505 496 q 464 703 505 663 q 357 743 423 743 q 297 733 317 743 q 268 685 280 724 q 208 543 242 597 q 143 482 169 482 q 121 506 127 482 q 115 549 115 522 q 242 766 115 686 q 496 835 351 835 q 636 790 583 835 q 692 658 692 743 q 181 138 692 427 z "},"3":{"ha":758,"x_min":-24,"x_max":692,"o":"m 446 452 q 567 283 567 398 q 452 74 567 178 q 178 -49 317 -49 q 43 -8 107 -49 q -24 73 -24 35 q -13 94 -24 84 q 14 100 -3 100 q 131 73 50 100 q 257 46 212 46 q 377 81 326 46 q 435 187 435 122 q 247 353 435 294 q 92 370 192 370 l 289 486 l 309 486 q 380 477 328 486 q 517 632 517 543 q 475 707 517 680 q 388 730 440 730 q 351 728 360 730 q 323 720 341 726 q 270 583 304 640 q 212 521 233 521 q 191 537 198 521 q 184 572 184 551 q 293 765 184 688 q 511 833 391 833 q 634 799 583 833 q 692 692 692 760 q 446 452 692 538 z "},"4":{"ha":758,"x_min":-74,"x_max":714,"o":"m 518 377 l 538 376 l 592 376 l 660 378 l 714 380 l 635 293 l 601 250 l 544 254 l 471 258 l 366 -26 q 313 -31 344 -28 q 182 -58 303 -32 l 317 261 l 102 261 l 49 257 l -74 252 l 359 634 q 450 719 417 686 l 498 769 q 526 803 515 791 q 659 832 570 812 q 710 848 680 840 l 518 377 m 465 654 l 422 614 l 160 380 l 361 375 l 477 667 l 465 654 z "},"5":{"ha":758,"x_min":-37,"x_max":710,"o":"m 254 562 q 275 566 265 566 l 316 570 q 490 514 423 570 q 560 351 560 454 q 336 -6 560 151 q 160 -61 257 -61 q 27 -27 87 -61 q -37 40 -37 8 q 7 68 -37 68 q 159 56 17 68 l 294 44 q 388 100 342 41 q 432 237 432 157 q 372 371 432 323 q 225 413 315 416 l 181 412 l 116 403 l 306 833 l 425 829 q 681 848 633 821 l 688 850 l 703 848 l 710 831 q 625 692 650 745 l 313 692 l 254 562 z "},"6":{"ha":758,"x_min":-3,"x_max":719,"o":"m 299 566 q 478 638 411 638 q 613 572 559 638 q 663 427 663 511 q 610 255 663 334 q 319 -9 484 68 q 185 -46 239 -46 q 52 20 108 -46 q -3 180 -3 86 q 153 524 -3 340 q 569 845 310 708 l 719 797 q 299 566 463 728 m 349 502 q 204 447 281 502 q 152 262 152 342 q 210 131 152 186 q 340 75 267 75 q 360 76 349 75 l 376 83 q 511 313 511 165 q 471 446 511 394 q 349 502 427 502 z "},"7":{"ha":758,"x_min":3,"x_max":808,"o":"m 562 679 l 528 679 q 429 681 502 679 q 330 682 366 682 q 231 674 275 680 q 139 632 169 665 l 111 663 l 267 831 l 426 819 l 603 814 q 808 841 699 814 q 486 448 637 650 q 168 -22 334 245 l 96 -35 l 3 -66 l 231 218 l 562 679 z "},"8":{"ha":758,"x_min":-6,"x_max":713,"o":"m 519 407 q 580 302 580 358 q 370 3 580 155 q 208 -50 296 -50 q 64 -6 127 -50 q -6 121 -6 44 q 190 392 -6 239 q 169 419 176 409 q 136 511 136 463 q 296 769 136 627 q 494 848 386 848 q 642 805 578 848 q 713 676 713 756 q 519 407 713 560 m 541 663 q 420 694 490 694 q 250 633 313 694 q 289 554 252 591 q 363 500 309 534 q 478 434 414 468 q 587 594 587 528 q 541 663 587 635 m 272 341 l 231 363 q 127 207 127 277 q 186 132 127 157 q 289 115 231 115 q 462 176 402 115 q 272 341 441 249 z "},"9":{"ha":758,"x_min":14,"x_max":699,"o":"m 579 306 q 520 222 579 306 q 239 -41 460 137 l 14 -41 q 347 158 226 57 q 486 311 439 233 q 264 196 352 196 q 120 258 175 196 q 66 408 66 318 q 130 602 66 508 q 279 746 186 686 q 506 829 407 829 q 642 764 585 829 q 699 605 699 699 q 579 306 699 475 m 493 667 q 470 695 493 667 q 359 723 447 723 q 254 626 306 723 q 213 490 213 550 q 257 382 213 421 q 371 342 300 342 q 521 398 449 342 q 534 450 528 416 q 538 525 538 505 q 493 667 538 611 z "}," ":{"ha":379,"x_min":0,"x_max":0,"o":""},"!":{"ha":489,"x_min":-45,"x_max":463,"o":"m 180 248 l 80 210 l 291 833 l 463 872 l 180 248 m 66 -44 q 33 -19 41 -26 q 7 5 16 -3 l -45 63 l 108 150 l 161 87 l 208 38 l 66 -44 z "},"\"":{"ha":465,"x_min":48,"x_max":416,"o":"m 414 888 l 366 583 l 325 583 l 275 913 q 345 992 275 992 q 397 972 375 992 q 416 916 416 949 l 416 900 l 414 888 m 189 897 l 189 888 l 141 583 l 100 583 l 48 916 q 67 970 48 947 q 119 992 87 992 q 174 969 155 992 q 191 913 193 946 l 189 897 z "},"#":{"ha":1068,"x_min":45,"x_max":1023,"o":"m 983 575 l 779 575 l 720 410 l 937 410 l 897 298 l 680 298 l 570 -3 l 443 -3 l 553 298 l 385 298 l 276 -3 l 150 -3 l 258 298 l 45 298 l 88 410 l 298 411 l 358 575 l 130 575 l 172 687 l 398 687 l 508 989 l 635 989 l 526 687 l 691 687 l 801 989 l 928 989 l 819 687 l 1023 687 l 983 575 m 484 575 l 424 410 l 594 410 l 652 575 l 484 575 z "},"$":{"ha":758,"x_min":32,"x_max":671,"o":"m 292 345 q 152 490 152 429 q 196 607 152 543 q 351 743 250 685 q 468 772 404 772 l 473 772 l 513 873 l 557 884 l 614 898 l 549 762 q 633 720 578 754 q 671 685 648 707 l 576 507 l 536 523 l 550 555 l 553 570 q 494 629 551 599 l 424 462 q 528 390 492 427 q 564 317 564 353 q 507 177 564 251 q 337 54 446 100 q 310 46 337 54 q 252 39 282 39 l 244 39 l 199 -77 l 98 -108 l 165 50 q 32 144 90 79 l 117 322 l 158 304 q 142 253 145 284 q 221 180 142 214 l 292 345 m 412 650 q 299 634 338 654 q 267 589 267 617 q 357 497 267 549 l 420 648 l 412 650 m 294 158 q 426 174 384 151 q 456 215 456 191 q 387 289 456 250 q 357 307 374 297 l 294 158 z "},"%":{"ha":1081,"x_min":64,"x_max":958,"o":"m 930 186 q 855 71 905 128 q 751 -18 804 12 q 648 -46 700 -46 q 533 7 581 -46 q 487 140 487 59 q 586 362 487 250 q 800 477 688 477 q 913 432 868 477 q 958 312 958 386 q 930 186 958 250 m 209 -45 l 137 -45 l 800 824 l 876 824 l 209 -45 m 505 543 q 326 337 447 408 q 227 307 275 307 q 109 361 157 307 q 64 492 64 412 q 126 671 64 580 q 268 802 184 755 q 375 832 321 832 q 490 785 444 832 q 534 666 534 740 q 505 543 534 609 m 700 404 l 694 404 q 604 252 627 344 q 597 197 597 227 q 640 79 597 125 q 753 33 682 33 l 754 33 q 848 254 848 126 q 805 360 848 315 q 700 404 762 404 m 275 757 l 269 757 q 173 549 173 669 q 214 433 173 478 q 328 385 257 385 l 331 385 q 397 488 372 426 q 423 606 423 549 q 381 713 423 670 q 275 757 339 757 z "},"&":{"ha":772,"x_min":-95,"x_max":716,"o":"m 699 -157 q 511 -214 578 -214 q 250 158 338 -214 q -12 -45 87 -45 q -75 -13 -52 -45 q -95 57 -95 16 q 20 291 -95 157 q 215 477 84 364 l 215 487 q 305 772 215 632 q 506 934 410 934 q 581 855 581 934 q 331 510 581 745 l 331 466 q 337 408 331 452 l 346 344 l 358 363 l 383 410 l 447 404 l 511 401 l 580 404 l 716 412 l 665 365 q 569 283 596 300 l 498 271 l 428 267 l 389 268 l 359 270 q 642 -124 484 -124 l 686 -121 l 707 -116 l 699 -157 m 427 765 q 403 774 418 773 l 389 770 l 374 764 q 329 574 333 697 q 437 736 437 682 q 427 765 437 753 m 222 320 q 215 412 216 359 q 59 191 59 272 q 114 135 59 135 q 238 217 173 135 l 222 320 z "},"'":{"ha":239,"x_min":45,"x_max":191,"o":"m 189 906 l 188 888 l 141 583 l 100 583 l 50 893 q 68 971 45 947 q 119 992 87 992 q 172 972 150 992 q 191 916 191 949 l 189 906 z "},"(":{"ha":392,"x_min":-42,"x_max":616,"o":"m 217 551 q 157 428 217 551 q 96 -5 96 304 q 125 -252 96 -123 l -12 -314 q -41 -103 -38 -215 q -42 -58 -42 -47 q 496 1009 -42 597 l 616 1028 q 217 551 338 799 z "},")":{"ha":392,"x_min":-363,"x_max":295,"o":"m -243 -298 l -363 -315 q 35 165 -86 -85 q 157 717 157 412 q 127 965 157 842 l 266 1027 q 280 964 271 1004 q 295 821 293 901 q 295 770 295 821 q -243 -298 295 120 z "},"*":{"ha":694,"x_min":178,"x_max":671,"o":"m 567 764 q 474 778 536 770 q 507 713 475 777 q 538 633 528 672 l 427 563 q 425 629 427 595 q 422 669 422 661 l 406 751 l 360 707 q 286 650 334 682 l 178 728 q 235 744 225 740 q 361 804 311 774 l 359 806 q 339 816 359 806 q 224 885 327 821 l 271 1008 q 341 920 291 974 q 401 863 368 892 q 414 941 412 928 q 437 1014 421 975 l 570 1011 l 507 916 l 472 846 l 536 855 l 633 861 l 671 736 q 567 764 606 756 z "},"+":{"ha":1157,"x_min":162,"x_max":995,"o":"m 637 357 l 637 0 l 521 0 l 521 357 l 162 357 l 162 470 l 521 470 l 521 828 l 637 828 l 637 470 l 995 470 l 995 357 l 637 357 z "},",":{"ha":379,"x_min":-116,"x_max":128,"o":"m 68 -61 q 38 -87 68 -61 q -100 -158 8 -113 l -116 -123 q -31 -23 -31 -77 q -69 52 -31 8 l 90 133 q 121 72 115 93 l 125 57 q 128 37 127 46 q 68 -61 128 -8 z "},"-":{"ha":370,"x_min":-58,"x_max":304,"o":"m 157 278 l 96 283 l 54 284 q -36 273 7 286 l -58 290 l 90 387 l 154 381 q 238 382 212 376 q 283 392 255 382 l 304 374 l 157 278 z "},"‐":{"ha":370,"x_min":-58,"x_max":304,"o":"m 157 278 l 96 283 l 54 284 q -36 273 7 286 l -58 290 l 90 387 l 154 381 q 238 382 212 376 q 283 392 255 382 l 304 374 l 157 278 z "},".":{"ha":379,"x_min":-98,"x_max":155,"o":"m 13 -44 l -43 -1 l -98 54 l 55 135 l 104 81 l 155 31 l 13 -44 z "},"/":{"ha":521,"x_min":-130,"x_max":569,"o":"m -54 -178 l -130 -178 l 492 1023 l 569 1023 l -54 -178 z "},":":{"ha":379,"x_min":-98,"x_max":242,"o":"m 102 179 q -11 283 60 209 l 142 368 l 192 311 l 242 258 l 102 179 m 13 -44 l -43 2 l -98 60 l 55 146 l 104 90 l 155 36 l 13 -44 z "},";":{"ha":379,"x_min":-116,"x_max":242,"o":"m 102 176 l 45 223 l -10 281 l 142 368 l 192 311 l 242 257 l 102 176 m 68 -58 q 38 -85 68 -58 q -100 -158 8 -112 l -116 -122 q -31 -19 -31 -74 q -69 58 -31 14 l 90 142 q 121 79 115 100 l 125 63 q 128 43 127 52 q 68 -58 128 -3 z "},"<":{"ha":1157,"x_min":169,"x_max":988,"o":"m 169 366 l 169 464 l 988 791 l 988 669 l 348 414 l 988 161 l 988 39 l 169 366 z "},"=":{"ha":1157,"x_min":162,"x_max":995,"o":"m 162 488 l 162 596 l 995 596 l 995 488 l 162 488 m 162 232 l 162 341 l 995 341 l 995 232 l 162 232 z "},">":{"ha":1157,"x_min":169,"x_max":988,"o":"m 169 39 l 169 161 l 810 414 l 169 669 l 169 791 l 988 464 l 988 366 l 169 39 z "},"?":{"ha":675,"x_min":9,"x_max":661,"o":"m 294 351 l 313 318 l 347 270 l 201 186 q 150 245 154 240 q 112 307 132 268 q 406 497 315 415 q 494 644 494 577 q 378 738 494 738 q 314 725 345 738 q 283 711 302 720 q 263 694 277 707 q 231 534 262 614 q 168 460 201 460 q 129 540 129 460 q 224 729 129 642 q 418 836 307 804 q 500 849 464 849 q 613 814 569 849 q 661 710 661 776 q 524 493 661 601 q 294 351 461 444 m 119 -44 l 64 5 l 9 63 l 163 151 q 206 100 175 135 l 262 38 l 119 -44 z "},"@":{"ha":1370,"x_min":86,"x_max":1285,"o":"m 1246 314 q 1040 99 1177 153 q 946 79 989 79 q 798 199 821 79 q 596 80 717 80 q 445 151 500 80 q 394 315 394 216 q 527 597 394 473 q 738 689 624 689 q 888 587 849 689 l 915 678 l 1043 677 l 920 248 q 910 194 910 220 q 961 133 910 133 q 1070 178 1009 133 q 1229 535 1229 298 q 1090 825 1229 708 q 771 929 967 929 q 365 771 526 929 q 195 348 195 606 q 351 -9 195 121 q 725 -134 500 -134 q 944 -98 834 -134 q 1152 7 1052 -64 l 1187 -35 q 726 -191 968 -191 q 143 120 296 -191 q 86 365 86 235 q 318 835 86 645 q 757 986 503 986 q 1140 858 995 986 q 1285 517 1285 730 q 1246 314 1285 407 m 816 603 q 749 637 790 637 q 630 556 684 637 q 558 410 589 494 q 526 253 526 319 q 551 168 526 201 q 611 136 576 136 q 760 249 688 136 q 843 511 843 380 q 816 603 843 566 z "},"A":{"ha":875,"x_min":-229,"x_max":755,"o":"m 581 17 q 500 -30 530 -30 q 458 0 475 -30 q 441 67 439 31 l 448 167 l 467 321 l 435 318 l 341 318 l 288 322 q 35 -33 133 75 q -135 -147 -68 -147 q -203 -118 -178 -147 q -229 -46 -229 -89 q -65 273 -229 95 l -10 278 q -121 66 -121 136 q -109 29 -121 41 q -79 16 -99 16 q 35 86 -35 16 q 224 326 102 153 l 186 328 l 99 339 l 218 399 l 300 448 q 401 623 348 527 q 527 894 489 784 q 543 981 543 940 l 631 1013 l 724 1047 q 650 745 675 901 q 616 419 617 542 l 651 420 l 755 435 l 671 379 l 621 353 l 608 351 l 605 284 q 611 163 600 190 q 627 151 616 151 q 717 243 656 151 l 730 189 q 581 17 633 66 m 493 687 q 353 429 425 548 l 407 419 l 469 416 l 477 417 q 496 587 478 454 l 516 739 q 493 687 498 698 z "},"B":{"ha":852,"x_min":-52,"x_max":861,"o":"m 785 716 q 550 497 715 624 q 669 317 669 444 q 390 -60 669 116 q 277 3 319 -50 q 236 125 236 53 q 271 269 236 199 l 311 299 l 300 244 q 342 84 296 138 q 444 35 384 36 q 530 245 530 146 q 272 427 530 400 l 203 265 l 115 56 l -37 -62 l -51 -39 l -52 -24 q 20 174 -52 16 q 214 681 167 496 q 244 841 244 800 q 227 865 244 861 q 208 857 221 865 q 203 854 205 856 q 174 838 190 849 q 130 811 165 832 l 132 860 q 403 1021 349 1010 q 442 976 442 1021 q 344 632 442 906 q 581 908 466 800 q 785 1036 716 1036 q 845 993 825 1036 q 861 916 861 959 q 785 716 861 817 m 645 864 q 494 745 605 864 q 302 478 389 633 l 442 532 l 477 526 l 498 518 q 610 657 564 578 q 665 825 665 749 q 645 864 665 864 z "},"C":{"ha":758,"x_min":-37,"x_max":829,"o":"m 775 781 q 709 702 754 750 q 433 489 569 553 q 357 455 400 473 l 335 513 q 580 642 487 555 q 671 805 671 726 q 644 870 671 845 q 576 895 617 895 q 403 805 507 895 q 227 587 307 722 q 127 293 127 415 q 174 147 127 199 q 309 94 228 88 l 360 98 q 395 111 381 102 q 553 317 508 220 l 653 334 q 165 -41 389 -41 q 16 21 70 -41 q -37 174 -37 79 q 165 633 -37 379 q 456 909 303 806 q 726 1014 612 1014 q 800 988 774 1014 q 829 921 829 965 q 775 781 829 857 z "},"D":{"ha":1003,"x_min":-80,"x_max":988,"o":"m 535 892 l 502 892 q 323 866 421 895 q 218 811 243 842 q 167 724 195 783 l 54 480 l 44 563 l 41 608 q 52 705 39 650 q 90 771 63 741 q 599 1015 310 1015 q 882 897 772 1015 q 988 607 988 782 q 882 290 988 442 q 635 54 791 158 q 411 -28 512 -28 q 224 7 368 -28 l 110 37 q -30 -62 34 -28 q -60 -71 -49 -71 l -75 -66 l -80 -53 q -2 130 -80 -14 q 61 196 33 196 q 141 182 83 196 l 405 794 l 487 853 l 535 892 m 589 882 q 352 431 563 836 l 214 163 q 517 109 404 109 q 568 112 553 109 q 673 151 623 115 q 788 313 734 193 q 842 546 842 432 q 774 757 842 669 q 589 882 708 843 z "},"E":{"ha":743,"x_min":-34,"x_max":756,"o":"m 711 802 q 574 686 662 745 l 532 707 q 596 761 577 739 q 611 802 611 783 q 572 857 611 834 q 505 877 540 877 l 488 877 q 465 871 482 877 q 432 859 445 868 q 345 713 345 777 q 412 611 345 655 q 582 568 478 568 l 629 568 l 529 503 l 471 458 l 424 465 l 394 467 q 312 450 348 467 l 296 442 q 186 357 234 412 q 131 231 131 293 q 176 147 131 177 q 273 121 214 121 q 435 161 370 121 l 479 229 l 514 309 l 606 320 q 395 58 514 151 q 163 -38 274 -38 q 23 15 80 -38 q -34 149 -34 68 q 80 362 -34 258 q 293 496 168 442 q 186 627 186 543 q 267 786 186 701 q 407 907 307 830 q 606 1010 538 1010 q 711 978 667 1010 q 756 905 756 945 q 711 802 756 855 z "},"F":{"ha":775,"x_min":38,"x_max":869,"o":"m 698 810 q 631 660 661 733 q 574 509 591 562 l 583 508 l 646 508 l 709 515 l 604 453 l 536 410 q 475 246 484 269 q 397 102 429 131 q 277 8 343 50 q 139 -45 192 -45 q 38 42 38 -45 q 122 220 38 112 q 184 288 145 249 l 240 310 q 181 177 181 222 q 205 122 181 146 q 260 100 229 97 l 277 101 l 288 102 q 345 227 311 142 q 386 342 359 263 l 410 415 q 99 453 286 417 l 192 505 l 260 551 l 373 528 l 444 518 l 517 770 q 609 814 568 783 q 464 853 581 819 q 317 880 374 880 q 249 848 272 880 q 205 705 224 815 l 119 705 q 258 929 174 842 q 401 1017 342 1017 q 601 969 450 1017 q 869 895 721 930 l 698 810 z "},"G":{"ha":827,"x_min":-26,"x_max":802,"o":"m 745 780 q 717 739 745 780 q 595 616 688 698 l 526 616 q 621 723 592 675 q 647 810 647 768 q 626 870 647 847 q 567 892 602 892 q 467 861 525 892 q 356 772 414 833 q 199 543 262 673 q 130 275 130 399 q 157 152 130 202 q 259 90 192 90 l 281 92 l 304 99 q 518 422 409 197 l 446 429 l 326 435 l 479 534 l 612 517 l 752 510 q 581 195 660 409 q 408 -124 503 -14 q 159 -303 313 -235 l 157 -298 q 125 -174 125 -239 q 146 -55 125 -106 q 26 16 75 -48 q -26 192 -26 85 q 69 501 -26 328 q 426 899 197 734 q 685 1018 589 1018 q 767 991 734 1018 q 802 915 802 963 q 745 780 802 863 m 476 247 l 491 250 q 194 -54 328 -7 l 191 -68 l 191 -88 q 238 -193 191 -154 q 355 -28 295 -154 q 439 171 397 71 q 479 255 465 227 l 481 243 l 476 247 z "},"H":{"ha":1003,"x_min":-335,"x_max":1029,"o":"m 620 402 l 583 402 q 524 404 574 402 q 459 406 500 404 l 331 415 q 286 275 301 318 q 224 140 254 186 q -144 -83 170 54 l -335 41 l -182 27 l -81 24 q 80 183 -10 22 q 191 431 138 288 l 66 445 l 233 555 q 288 721 254 610 q 308 825 308 801 q 306 842 308 837 q 296 844 302 844 l 266 836 l 189 804 l 189 849 q 387 966 323 931 q 474 1002 452 1002 q 513 949 507 1002 q 475 804 513 916 q 369 526 432 679 l 479 519 l 655 503 q 745 756 710 666 q 787 857 746 760 q 824 942 800 887 q 920 966 888 956 q 964 979 941 972 q 1029 1004 981 985 q 869 671 966 892 l 793 497 l 803 497 l 833 496 l 862 497 l 949 503 l 761 402 q 734 332 749 376 q 695 155 695 212 q 713 112 695 112 q 804 204 740 112 l 821 150 q 583 -59 659 -59 q 521 41 521 -59 q 581 302 521 140 q 620 402 602 358 z "},"I":{"ha":599,"x_min":-71,"x_max":667,"o":"m 583 920 q 544 861 562 895 q 443 576 503 782 q 342 266 378 349 q 176 11 281 125 q -26 -130 71 -103 q -71 -20 -71 -85 q -8 223 -71 83 l 103 304 q 55 190 67 240 q 42 101 42 138 q 73 2 42 27 q 146 127 113 49 q 242 418 184 214 q 343 739 303 632 q 410 878 379 835 l 394 879 l 363 882 l 319 878 q 300 874 308 876 q 271 866 293 873 q 220 753 257 849 l 189 737 l 126 707 q 267 926 178 850 q 453 1003 359 1006 l 667 997 q 583 920 602 942 z "},"J":{"ha":660,"x_min":-85,"x_max":750,"o":"m 517 517 q 385 121 440 270 q 357 58 376 100 q 338 13 351 42 q 210 -157 292 -85 q 112 -235 174 -189 q 36 -279 77 -260 q -21 -299 -10 -299 q -66 -264 -45 -299 q -85 -189 -85 -231 q 63 163 -85 -33 l 140 189 q 59 45 80 111 q 38 -98 38 -23 q 45 -161 38 -135 q 63 -188 54 -178 q 222 81 149 -102 q 348 467 262 179 q 498 874 429 742 l 467 878 q 404 879 456 879 q 342 869 393 879 q 239 625 239 743 q 255 568 239 591 q 306 540 273 540 q 321 541 315 540 l 378 571 q 320 498 339 520 q 191 378 270 441 q 102 507 102 405 q 159 708 102 600 q 283 878 208 800 q 484 1000 400 1000 q 591 992 475 1000 l 698 985 l 750 985 q 517 517 637 903 z "},"K":{"ha":939,"x_min":-77,"x_max":967,"o":"m 827 741 q 461 440 691 595 q 646 106 585 106 q 740 193 679 106 l 753 138 q 635 -3 694 54 q 543 -63 572 -63 q 382 226 496 -63 l 347 317 q 215 168 264 229 q 159 92 199 146 q 113 20 132 52 l 36 -28 l -77 -102 q 62 216 9 85 q 161 485 116 353 q 248 804 248 738 q 245 825 248 819 q 230 831 240 828 q 205 821 222 830 q 186 812 197 818 q 149 785 170 800 l 134 830 q 413 1004 371 1004 q 456 950 450 1004 q 411 779 456 916 q 298 458 356 610 q 385 474 307 458 q 427 488 395 476 q 755 854 603 701 q 940 1011 911 1011 q 959 1002 952 1006 q 967 981 964 995 q 827 741 967 890 m 299 411 q 287 425 295 417 l 236 288 l 212 236 l 233 260 l 323 368 q 299 411 309 399 z "},"L":{"ha":836,"x_min":-176,"x_max":842,"o":"m 774 804 q 740 764 774 804 q 579 633 705 724 l 532 652 q 667 821 667 751 q 583 900 667 900 l 555 897 l 523 886 q 362 562 471 842 q 200 218 270 322 q 356 111 235 205 q 433 54 412 67 q 521 19 484 20 q 654 194 599 66 l 755 213 q 406 -119 611 -22 q 250 -18 349 -110 q 104 102 162 64 q -12 0 50 45 q -147 -61 -95 -61 q -176 -37 -176 -53 q -97 96 -176 14 q 81 212 -22 173 q 181 498 131 355 q 302 767 245 679 q 529 947 358 850 q 646 1000 586 980 q 743 1018 698 1018 q 842 941 842 1018 q 774 804 842 884 z "},"M":{"ha":1244,"x_min":-292,"x_max":1144,"o":"m 1135 966 q 1078 774 1114 902 q 998 372 1029 555 q 968 148 968 203 q 975 123 968 130 q 983 117 977 117 q 1076 197 1008 117 l 1094 150 q 850 -63 909 -63 q 793 20 793 -63 q 826 268 793 72 q 900 640 855 439 q 581 143 797 472 q 428 -22 465 -22 q 395 2 407 -22 q 387 77 386 29 l 406 696 q -3 -41 212 245 q -201 -186 -114 -186 q -267 -157 -241 -186 q -292 -87 -292 -127 q -119 234 -292 48 l -63 241 q -166 39 -166 108 q -128 -5 -166 -5 q 104 226 -43 -5 q 317 609 239 437 q 398 855 398 786 q 390 885 398 878 q 364 895 382 895 q 246 848 326 895 l 254 899 q 428 991 311 932 q 502 1014 475 1014 q 555 982 541 1014 q 569 835 569 953 q 567 767 569 823 l 565 715 q 553 366 563 599 q 548 253 548 273 l 548 226 l 551 199 q 697 410 564 199 q 772 527 722 448 q 898 762 861 672 q 933 914 933 847 l 1128 1019 l 1139 1008 l 1144 998 l 1135 966 z "},"N":{"ha":1003,"x_min":-198,"x_max":994,"o":"m 883 495 q 581 -78 769 221 l 555 -81 q 389 713 493 392 q 98 64 282 374 q -134 -191 -55 -191 q -182 -156 -163 -191 q -198 -96 -198 -127 q -30 239 -198 52 l 54 264 q -8 201 -1 209 q -57 132 -35 172 q -86 38 -86 80 q -68 14 -86 18 q 100 200 -6 16 q 274 555 205 385 q 342 783 342 726 q 328 838 342 819 q 282 854 311 854 q 132 772 226 854 l 122 825 q 431 1016 294 970 q 564 683 500 906 q 671 178 621 479 q 883 746 883 572 q 817 848 883 848 q 707 761 766 848 l 681 804 q 817 956 744 892 q 926 1011 882 1011 q 994 905 994 1011 q 883 495 994 761 z "},"O":{"ha":932,"x_min":-16,"x_max":949,"o":"m 872 423 q 543 69 767 226 q 256 -46 376 -46 q 55 36 128 -46 q -16 241 -16 114 q 104 611 -16 428 q 435 928 223 793 l 484 920 q 239 648 321 799 q 157 343 157 496 q 221 165 157 233 q 397 94 287 94 q 724 385 601 94 q 777 617 777 509 q 741 772 777 710 q 611 850 697 850 q 375 680 491 850 l 313 677 l 454 850 q 558 988 492 894 q 685 1014 609 1014 q 878 925 804 1014 q 949 720 949 841 q 872 423 949 568 z "},"P":{"ha":824,"x_min":-37,"x_max":838,"o":"m 390 705 q 544 886 463 804 q 734 1007 665 1007 q 838 841 838 1007 q 722 509 838 661 q 437 292 611 362 q 261 257 349 257 l 234 257 l 227 258 q 197 179 216 230 q 160 55 160 79 q 163 44 160 47 q 174 39 165 41 q 285 97 206 39 l 283 41 l 98 -69 q 13 -100 45 -100 q -37 -52 -37 -100 q -8 51 -37 -17 l 95 294 q 37 347 75 309 l 94 381 l 132 408 q 255 802 255 738 q 251 820 255 813 q 235 825 245 825 q 135 772 199 825 l 140 835 l 353 972 q 420 1006 404 1006 q 456 959 456 1006 q 390 705 456 899 m 620 848 q 453 711 556 848 q 261 352 349 574 l 295 343 q 415 348 370 337 q 491 389 450 357 q 567 475 528 418 q 668 762 668 619 q 620 848 668 848 z "},"Q":{"ha":939,"x_min":-80,"x_max":910,"o":"m 745 376 q 289 66 588 203 q 545 -3 462 -3 q 744 113 658 -3 l 812 111 q 460 -124 612 -124 q 92 -19 326 -124 l 62 -25 q -22 -21 7 -30 q -80 7 -46 -14 l 65 150 q 178 115 96 146 l 222 98 q 564 319 422 170 q 726 685 726 490 q 549 886 726 886 q 319 740 410 886 q 241 466 241 613 q 351 319 241 319 q 429 340 387 319 q 498 404 470 361 l 563 404 q 391 243 475 296 q 232 188 303 188 q 106 250 153 188 q 64 387 64 305 q 160 661 64 521 q 236 753 184 696 q 465 937 342 869 q 688 1007 591 1007 q 849 940 787 1007 q 910 760 910 873 q 745 376 910 557 z "},"R":{"ha":920,"x_min":-22,"x_max":890,"o":"m 401 650 q 814 1015 680 1015 q 870 982 848 1015 q 890 905 890 952 q 778 620 890 755 q 462 437 680 504 q 548 266 509 338 q 669 116 629 116 q 716 142 690 116 q 765 192 734 159 l 781 138 l 713 63 q 574 -59 604 -59 q 441 130 533 -59 q 297 404 361 293 q 240 255 267 331 q 181 68 227 217 q 134 33 165 56 q 60 -28 111 14 l -3 -79 l -18 -75 l -22 -62 q 6 18 -22 -54 q 208 545 77 192 q 267 781 267 720 q 257 816 267 805 q 237 826 251 826 q 212 819 229 826 l 153 782 l 148 836 l 300 930 q 439 1007 425 1007 q 476 958 468 1007 q 451 828 476 926 q 401 650 435 768 m 332 459 l 418 501 l 441 500 l 474 498 l 490 500 l 513 503 q 647 641 591 549 q 703 805 703 732 q 696 842 703 830 q 675 852 690 850 q 528 736 631 851 q 332 459 438 634 z "},"S":{"ha":726,"x_min":-56,"x_max":759,"o":"m 710 776 q 685 740 710 776 q 595 641 661 703 l 531 648 q 600 714 588 695 q 612 760 612 734 q 562 836 612 810 q 468 854 524 854 q 261 707 261 854 q 334 600 261 652 q 456 532 368 574 q 549 467 521 500 q 584 361 584 425 q 344 18 584 193 q 142 -47 254 -47 q 8 -4 73 -47 q -56 72 -56 39 q 37 272 -56 130 q 100 355 64 313 l 189 362 q 101 279 121 311 q 81 220 81 246 q 131 149 81 178 q 262 117 184 117 q 419 151 372 117 q 464 256 464 182 q 416 345 464 307 q 323 397 389 366 q 195 471 231 438 q 137 600 137 522 q 228 811 137 697 q 406 965 309 911 q 567 1010 488 1010 q 702 961 644 1010 q 759 869 759 912 q 710 776 759 849 z "},"T":{"ha":903,"x_min":56,"x_max":1010,"o":"m 884 833 q 684 772 779 766 l 654 774 l 613 779 q 291 345 291 589 q 353 177 291 250 q 510 85 414 104 q 689 322 620 178 l 784 334 q 550 52 671 155 q 349 -53 426 -53 q 319 -46 334 -53 l 288 -26 q 158 120 216 19 q 108 296 108 208 q 541 793 108 536 l 418 821 q 212 861 244 861 q 92 808 165 861 l 56 830 l 98 862 q 277 1013 238 968 q 402 983 319 1006 q 500 955 456 968 q 709 908 646 909 l 868 978 q 988 1013 920 1000 l 1010 990 q 884 833 978 893 z "},"U":{"ha":971,"x_min":1,"x_max":938,"o":"m 513 371 q 267 86 395 201 q 47 -43 123 -43 q 1 8 1 -43 q 135 392 1 32 q 205 599 164 471 q 259 801 259 766 q 232 838 259 838 q 213 833 223 838 q 147 797 191 822 l 134 842 l 347 982 q 416 1015 390 1011 q 455 996 439 1015 q 465 951 465 978 q 361 627 465 903 l 330 547 l 286 432 q 201 184 201 217 q 208 161 201 170 q 222 154 212 154 q 333 233 252 154 q 500 436 414 311 q 620 648 563 526 q 746 954 675 763 l 827 985 q 892 1009 846 992 q 924 1021 901 1013 l 935 1013 l 938 1004 q 833 763 938 993 q 680 389 720 515 q 646 200 646 282 q 658 142 646 158 q 683 127 665 129 q 783 202 715 127 l 801 157 q 530 -43 619 -43 q 465 71 465 -43 q 513 371 465 203 z "},"V":{"ha":791,"x_min":66,"x_max":865,"o":"m 791 682 q 692 632 760 664 q 553 373 627 499 q 407 148 471 235 q 200 -56 257 -56 q 139 -20 167 -56 q 113 56 113 12 q 129 146 113 61 l 144 227 l 199 566 q 216 737 216 668 q 203 807 216 786 q 167 827 193 827 q 109 809 148 827 l 71 785 l 66 838 l 285 977 q 359 1011 338 1011 q 390 987 382 1011 q 399 932 399 969 q 357 609 399 835 q 327 469 354 592 q 295 332 311 400 q 274 180 274 234 q 281 149 274 159 q 303 138 289 138 q 438 293 342 138 q 630 692 533 449 l 618 712 q 614 743 614 726 q 629 824 614 760 q 640 846 635 835 q 711 963 667 910 q 782 1015 756 1015 q 816 962 816 1015 q 814 926 816 938 q 772 801 798 859 q 865 720 793 751 l 791 682 z "},"W":{"ha":1100,"x_min":50,"x_max":1202,"o":"m 1092 645 l 1046 621 q 532 -56 710 -56 q 468 24 468 -56 q 501 222 468 60 l 541 416 q 304 55 381 152 q 164 -56 216 -56 q 89 56 89 -56 q 121 247 89 92 l 150 389 q 166 480 155 414 q 186 600 174 520 l 198 741 q 142 825 205 825 q 113 819 132 825 l 55 786 l 50 833 q 339 1007 313 1007 q 378 935 378 1007 q 328 626 378 864 l 303 507 l 262 297 q 248 196 248 226 q 271 154 248 154 q 333 205 293 154 q 382 280 363 244 l 385 286 q 562 584 530 507 q 587 770 587 732 q 574 846 587 821 q 521 894 566 871 q 721 1011 702 1011 q 767 945 767 1011 q 753 820 767 890 l 673 414 q 629 165 629 204 q 637 141 629 151 q 654 131 644 131 q 791 273 702 131 q 979 653 881 415 q 949 697 959 676 q 940 755 940 731 q 1034 966 940 863 q 1067 997 1051 981 q 1108 1017 1088 1013 q 1148 944 1148 1017 q 1138 873 1148 920 q 1111 788 1131 841 q 1202 710 1131 740 l 1092 645 z "},"X":{"ha":1003,"x_min":-141,"x_max":949,"o":"m 718 694 l 538 477 q 579 180 538 285 q 685 70 614 91 q 830 294 782 155 l 924 311 q 739 41 850 142 q 539 -63 625 -63 q 408 179 441 -63 q 397 332 399 253 q -70 -99 40 -99 q -141 4 -141 -99 q 44 341 -141 186 l 70 313 q -39 83 -39 205 q -5 17 -39 18 q 231 228 38 16 q 393 409 301 304 q 367 785 393 692 q 307 851 348 851 q 256 835 283 851 q 164 762 227 818 l 150 812 q 246 898 200 859 q 432 1015 385 1015 q 515 932 493 1015 q 534 606 534 858 l 534 555 l 720 795 q 811 954 753 888 q 914 1019 869 1019 q 949 986 944 1019 q 905 896 949 948 q 876 861 893 878 l 876 849 q 891 773 876 808 q 943 718 907 739 q 869 686 894 696 q 737 615 839 673 l 720 668 l 718 694 z "},"Y":{"ha":868,"x_min":67,"x_max":1002,"o":"m 947 962 q 861 812 922 926 q 611 293 741 591 q 467 -22 500 39 q 361 -153 433 -87 q 302 -203 344 -168 q 157 -296 199 -289 q 123 -271 137 -296 q 114 -218 114 -250 q 186 -27 114 -141 q 110 91 104 4 l 114 146 l 128 220 l 132 237 q 218 761 218 575 q 167 841 218 841 q 75 809 131 841 l 67 853 q 338 1023 308 1023 q 385 919 385 1023 q 328 560 385 791 q 272 234 272 328 q 311 161 272 161 q 488 372 366 161 q 748 937 612 587 l 850 974 l 1002 1032 q 947 962 958 980 m 472 277 l 484 281 q 339 75 412 163 q 225 -31 267 -9 q 208 -110 216 -54 q 210 -134 208 -126 q 213 -154 213 -146 q 224 -182 218 -170 q 470 288 342 -103 l 476 275 l 472 277 z "},"Z":{"ha":817,"x_min":-106,"x_max":885,"o":"m 143 197 q 244 158 163 197 q 368 94 306 126 q 500 60 443 60 q 548 68 517 60 q 600 193 586 121 l 683 205 q 540 -16 626 65 q 383 -98 454 -98 q 237 -39 321 -98 q 101 56 169 9 q 58 69 75 68 q -74 -37 -25 -37 q -96 -26 -87 -37 q -106 -1 -106 -16 q -49 120 -106 64 q 67 193 -1 166 l 607 823 q 484 839 563 825 q 342 854 376 857 l 309 852 l 276 847 q 251 818 262 836 l 219 755 l 118 741 q 312 940 227 867 q 422 1013 397 1013 q 562 981 452 1013 q 713 940 692 944 q 849 1013 792 1013 q 885 979 878 1013 q 827 882 885 933 q 696 815 771 833 l 143 197 z "},"[":{"ha":392,"x_min":-184,"x_max":579,"o":"m 554 933 l 422 939 l 307 621 q 189 312 292 581 q -39 -247 66 -5 l 96 -243 l 69 -309 l 9 -307 l -114 -307 l -184 -309 l 230 743 q 327 1001 260 823 l 358 999 l 440 995 l 579 1001 l 554 933 z "},"\\":{"ha":521,"x_min":77,"x_max":522,"o":"m 452 -178 l 77 1023 l 149 1023 l 522 -178 l 452 -178 z "},"]":{"ha":392,"x_min":-293,"x_max":472,"o":"m 142 163 q -39 -309 33 -111 l -68 -307 l -155 -303 l -293 -309 l -267 -243 l -135 -247 l -18 73 q 100 384 21 179 q 326 939 217 683 l 192 935 l 218 1000 l 279 999 l 401 999 l 472 1001 l 142 163 z "},"^":{"ha":1389,"x_min":256,"x_max":1131,"o":"m 1038 608 l 693 876 l 348 608 l 256 608 l 623 992 l 765 992 l 1131 608 l 1038 608 z "},"_":{"ha":694,"x_min":-10,"x_max":705,"o":"m -10 -328 l -10 -231 l 705 -231 l 705 -328 l -10 -328 z "},"`":{"ha":694,"x_min":281,"x_max":609,"o":"m 480 802 l 281 1004 l 464 972 l 609 779 l 480 802 z "},"a":{"ha":541,"x_min":-121,"x_max":515,"o":"m 203 185 q -68 -39 23 -39 q -121 45 -121 -39 q -24 353 -121 172 q 16 422 -1 397 q 271 649 124 581 q 359 678 334 678 q 404 658 376 678 q 435 621 423 641 q 467 639 446 627 l 494 656 l 509 652 l 515 640 q 484 566 514 635 l 431 446 q 328 122 328 212 q 331 106 328 112 q 338 101 334 101 q 359 110 347 101 l 407 159 l 416 104 q 207 -36 283 -36 q 171 -20 186 -36 q 161 22 161 -5 q 199 177 161 79 l 203 185 m 346 537 l 360 536 l 319 508 q 253 583 294 583 q 183 515 230 583 q 96 343 136 445 q 52 158 52 231 q 58 123 52 134 q 67 116 61 116 q 138 171 89 116 q 237 309 188 226 l 284 410 q 349 545 308 462 l 349 533 l 346 537 z "},"b":{"ha":541,"x_min":-66,"x_max":487,"o":"m 204 530 q 428 675 355 675 q 487 581 487 675 q 313 141 487 365 q 67 -42 170 -42 q -27 -2 12 -42 q -66 92 -66 39 q 41 429 -66 149 q 213 919 142 694 q 295 951 228 923 q 408 1008 339 970 q 343 873 359 911 q 292 755 323 828 l 204 530 m 325 526 q 299 540 315 540 q 253 514 283 540 q 166 397 200 469 q 113 259 160 384 q 88 153 88 195 q 180 70 88 73 q 323 379 287 212 q 335 473 335 430 q 325 526 335 508 z "},"c":{"ha":418,"x_min":-92,"x_max":426,"o":"m 411 578 q 404 555 411 578 q 366 469 396 532 l 335 455 q 283 433 317 448 q 212 398 263 424 q 272 549 272 500 q 267 573 272 566 q 254 578 262 578 q 229 567 241 578 q 192 528 215 557 q 105 361 143 467 q 67 179 67 256 q 127 87 67 87 l 134 87 q 205 191 176 116 l 296 208 q 143 31 229 97 q 1 -35 58 -35 q -73 14 -47 -35 q -92 104 -92 52 q 140 565 -92 344 q 271 648 191 614 q 395 682 351 682 q 419 669 408 682 l 426 646 q 411 578 426 625 z "},"d":{"ha":585,"x_min":-120,"x_max":665,"o":"m 243 233 q 107 70 179 143 q -60 -35 3 -35 q -106 -15 -86 -35 q -120 41 -120 5 q -66 268 -120 138 q 50 473 -18 383 q 210 623 115 559 q 356 687 305 687 q 383 677 370 687 q 401 663 390 674 q 437 781 408 690 l 483 928 q 560 953 527 938 q 588 966 570 957 q 665 1007 609 975 q 485 538 559 741 l 429 387 q 363 131 363 192 q 368 113 363 118 q 374 109 370 109 q 435 145 384 109 l 437 95 q 232 -41 304 -41 q 197 -26 213 -41 q 187 20 187 -7 q 208 121 187 54 q 243 233 218 159 m 349 532 l 362 529 l 318 506 q 301 544 308 534 q 282 568 294 555 q 250 584 262 584 q 205 545 235 584 q 138 427 186 520 q 71 262 95 341 q 48 143 48 189 q 52 122 48 127 q 66 117 56 117 q 189 237 101 117 q 351 538 280 361 l 352 528 l 349 532 z "},"e":{"ha":418,"x_min":-92,"x_max":435,"o":"m 408 536 q 263 407 363 466 q 199 371 242 394 q 92 340 139 343 q 63 191 63 273 q 139 81 63 81 l 149 81 l 153 81 q 210 176 178 106 q 223 225 214 187 l 306 231 q 172 34 262 114 q 18 -49 81 -49 q -62 -7 -31 -49 q -92 96 -92 32 q 1 395 -92 244 q 224 621 91 543 q 371 669 306 669 q 418 655 399 669 q 435 612 435 637 q 408 536 435 578 m 258 557 q 241 566 254 564 l 225 562 l 224 562 q 126 429 155 501 l 141 425 l 172 422 l 183 422 l 201 425 q 268 530 268 476 q 258 557 268 546 z "},"f":{"ha":387,"x_min":-217,"x_max":499,"o":"m 494 901 q 427 776 484 860 l 401 785 q 386 838 401 822 q 346 855 371 851 q 211 448 298 720 l 357 451 l 275 355 l 188 356 l 172 301 q 22 -142 74 -50 q -171 -335 -87 -335 q -207 -309 -193 -335 q -217 -248 -217 -281 q -201 -161 -217 -207 q -189 -132 -199 -153 l -141 -103 l -151 -150 l -153 -164 q -136 -216 -153 -208 q -68 -63 -122 -214 q -8 117 -33 36 q 57 353 12 186 l -20 354 l 83 458 q 243 838 157 732 q 406 982 330 943 q 448 994 428 994 q 485 974 471 994 q 499 931 499 955 q 494 901 499 918 z "},"g":{"ha":521,"x_min":-163,"x_max":514,"o":"m 404 372 l 313 115 q 242 -71 256 -44 q 141 -193 218 -118 q 20 -298 79 -254 q -68 -335 -29 -335 q -134 -308 -105 -335 q -163 -245 -163 -281 q -41 -73 -163 -174 l -7 -87 l -26 -133 l -31 -161 q 16 -227 -31 -218 q 180 142 82 -178 q -53 -46 13 -46 q -109 54 -109 -46 q -66 243 -109 131 q 22 420 -29 339 q 192 616 96 538 q 353 694 288 694 q 435 629 392 694 q 498 670 481 670 l 508 665 l 514 652 l 404 372 m 347 558 l 362 551 l 312 522 q 287 575 301 561 q 265 586 278 586 q 233 564 254 586 q 95 313 161 503 q 60 158 60 213 q 76 125 60 129 q 191 234 119 126 q 321 520 259 334 l 348 554 l 347 558 z "},"h":{"ha":636,"x_min":-134,"x_max":617,"o":"m 521 399 l 490 334 q 451 248 460 271 q 410 130 414 163 q 418 113 410 120 q 441 105 426 105 l 454 106 l 480 111 l 464 71 l 313 -16 q 258 -39 272 -39 q 227 -26 244 -39 q 216 9 216 -10 q 231 64 216 26 q 288 193 252 118 q 412 468 412 448 q 410 479 412 475 q 403 481 408 481 q 262 350 370 481 q 47 18 151 214 l -31 -10 l -134 -59 l 262 940 l 334 961 l 439 1001 q 228 485 319 701 q 100 193 142 281 q 434 615 221 425 q 579 686 562 686 q 617 638 617 686 q 521 399 617 605 z "},"i":{"ha":309,"x_min":-103,"x_max":407,"o":"m 335 806 q 312 791 335 806 q 241 776 288 776 q 195 782 208 776 q 139 806 176 784 l 199 861 l 251 920 l 327 900 l 407 894 q 335 806 382 836 m 238 542 q 134 302 201 464 q 101 221 117 262 q 68 106 69 136 l 72 92 q 77 89 75 89 q 105 110 84 89 q 127 139 119 128 q 186 252 139 157 l 149 75 q 17 -19 106 42 q -53 -47 -30 -47 q -89 -26 -75 -47 q -103 19 -103 -9 q -19 258 -103 60 q 113 602 64 456 l 220 654 l 275 682 l 290 679 l 295 666 l 238 542 z "},"j":{"ha":303,"x_min":-267,"x_max":405,"o":"m 325 803 q 232 777 283 777 l 216 777 q 188 783 197 781 l 132 805 l 192 861 q 220 892 216 887 q 244 922 225 898 q 314 901 277 909 q 377 895 345 895 l 405 895 q 325 803 370 831 m 113 184 q -4 -110 15 -80 q -117 -238 -48 -177 q -220 -303 -191 -303 q -255 -276 -241 -303 q -267 -220 -267 -253 q -260 -165 -267 -192 l -237 -106 l -189 -61 l -199 -122 l -203 -153 q -196 -182 -203 -170 q -190 -194 -194 -189 q -77 52 -155 -151 q 51 403 -12 219 l 124 621 l 283 688 l 315 704 q 113 184 214 456 z "},"k":{"ha":541,"x_min":-153,"x_max":484,"o":"m 109 247 l 24 37 l -46 -3 l -153 -70 l -20 271 q 76 509 -1 319 q 234 930 209 840 l 316 960 l 416 1002 q 185 431 341 810 l 148 347 q 279 436 252 404 q 307 517 307 467 q 304 549 307 537 q 294 592 302 570 l 458 669 q 474 643 470 654 q 479 627 478 632 l 484 591 q 234 343 484 494 q 299 143 257 222 q 374 66 340 67 l 383 68 l 412 81 l 427 49 q 264 -50 305 -50 q 172 45 220 -50 q 109 247 130 128 z "},"l":{"ha":321,"x_min":-83,"x_max":408,"o":"m 225 534 q 158 368 225 534 q 92 139 92 203 q 96 116 92 126 q 111 110 102 110 q 125 115 118 110 l 169 140 l 187 110 l 132 54 q -4 -52 26 -52 q -62 -24 -39 -52 q -83 36 -83 2 q 37 395 -83 96 q 229 935 146 665 l 311 960 l 408 1002 q 225 534 359 865 z "},"m":{"ha":888,"x_min":-122,"x_max":845,"o":"m 369 178 q 690 630 569 486 q 818 693 808 693 q 838 686 831 690 q 845 666 845 678 q 757 412 845 627 q 718 316 747 387 q 666 151 666 187 q 688 123 666 127 l 699 125 l 727 134 l 735 98 l 586 1 q 521 -28 543 -28 q 480 26 480 -28 q 572 271 480 66 q 650 474 650 442 q 649 478 650 477 l 646 479 q 542 353 626 472 q 330 23 456 232 l 155 -41 l 207 96 q 268 252 218 125 q 345 481 344 444 l 344 486 q 342 487 342 487 q 234 357 319 487 q 146 205 193 294 q 56 23 96 108 l -22 -4 l -122 -42 q 32 380 -26 201 q 79 593 79 528 l 79 602 l 77 622 q 225 685 211 685 q 247 678 237 685 q 253 654 253 669 q 189 445 253 612 q 119 257 149 342 q 359 616 229 450 q 525 688 509 688 q 543 680 537 684 q 551 659 551 673 q 469 431 551 635 q 369 178 419 304 z "},"n":{"ha":636,"x_min":-121,"x_max":616,"o":"m 119 243 q 322 509 193 361 q 426 620 374 568 l 549 675 q 593 688 577 688 q 611 679 606 684 q 616 659 616 671 q 597 597 616 640 q 532 463 578 561 q 475 340 512 422 q 409 142 409 191 q 430 108 409 109 q 455 114 450 112 q 475 132 460 117 l 475 81 q 264 -29 281 -29 q 229 -12 246 -29 q 218 28 218 6 q 351 355 218 86 q 399 473 399 453 q 398 479 399 476 l 390 482 q 249 351 349 479 q 39 0 142 214 q -45 -15 -39 -14 q -121 -43 -74 -22 q -25 210 -97 31 q 102 639 102 528 q 233 682 146 652 q 258 688 250 688 l 271 682 q 280 661 275 677 q 212 469 280 627 q 119 243 157 342 z "},"o":{"ha":502,"x_min":-92,"x_max":477,"o":"m 429 362 q 138 11 340 156 q 21 -45 62 -45 q -66 5 -36 -45 q -92 108 -92 47 q 6 404 -92 246 q 275 692 105 562 l 327 685 q 131 441 197 568 q 64 208 64 314 q 82 136 64 165 q 145 100 104 100 l 171 104 l 195 114 q 283 297 247 196 q 323 494 323 410 q 313 541 323 526 q 292 555 307 555 q 258 542 284 555 l 239 564 l 410 705 q 477 576 477 705 q 429 362 477 472 z "},"p":{"ha":560,"x_min":-232,"x_max":553,"o":"m 234 528 q 372 637 309 597 q 497 690 457 690 q 539 672 523 690 q 553 622 553 652 q 313 130 553 393 q 194 18 255 66 q 110 -33 128 -33 q 84 -1 92 -33 q 81 117 75 36 l 83 132 l 31 -8 q -45 -219 6 -79 q -83 -235 -59 -224 q -119 -254 -96 -241 q -232 -317 -163 -276 q -38 183 -168 -151 q 26 351 8 302 q 115 617 106 570 q 199 659 147 631 q 235 677 214 665 q 290 711 250 686 q 261 601 281 659 l 247 560 q 234 528 242 546 m 378 553 q 364 559 372 559 q 257 478 324 559 q 143 273 186 393 l 143 270 q 167 155 143 205 q 203 113 186 113 q 221 121 209 113 q 234 136 226 127 q 249 155 239 142 q 338 334 295 222 q 385 526 385 455 q 378 553 385 543 z "},"q":{"ha":521,"x_min":-113,"x_max":551,"o":"m 205 159 q 74 22 142 79 q -58 -52 -15 -52 q -113 41 -113 -52 q 74 486 -113 254 q 231 628 144 574 q 379 682 318 682 q 422 666 406 682 q 453 629 436 656 l 523 685 l 551 673 q 302 73 466 474 q 212 -181 212 -156 q 213 -188 212 -184 l 222 -191 l 237 -189 l 276 -175 l 269 -219 q 46 -340 103 -340 q 21 -330 32 -340 l 17 -309 q 94 -110 17 -294 l 205 159 m 369 534 l 381 531 l 340 512 q 281 583 311 583 q 243 566 262 583 q 95 308 165 491 q 59 152 59 214 q 64 125 59 134 q 75 120 67 120 q 177 200 113 120 q 315 435 263 308 q 373 541 338 490 l 374 528 l 369 534 z "},"r":{"ha":437,"x_min":-83,"x_max":438,"o":"m 218 507 q 299 626 262 582 q 379 678 343 678 q 438 613 438 678 q 347 399 438 541 l 316 413 l 329 458 l 332 474 q 309 508 332 508 q 254 473 286 508 q 125 210 189 405 q 98 108 98 125 q 111 91 98 94 l 125 96 l 175 128 l 177 77 q -35 -49 31 -49 q -68 -33 -55 -49 q -83 5 -83 -20 q -66 71 -83 28 l 13 275 q 45 353 25 303 q 83 513 83 458 q 77 541 83 531 q 47 555 68 549 l 41 579 l 146 640 q 197 661 182 661 q 223 645 212 661 q 231 604 231 630 q 229 565 231 582 l 224 541 q 218 507 222 526 z "},"s":{"ha":469,"x_min":-106,"x_max":454,"o":"m 426 530 q 340 407 387 471 l 304 417 l 324 456 l 328 478 q 296 534 327 513 q 231 551 269 551 q 164 530 193 551 q 134 486 134 509 q 182 420 134 458 q 280 351 231 386 q 338 257 338 304 q 250 98 338 201 q 33 -41 130 -41 q -106 60 -78 -41 q 43 249 -58 146 l 77 233 q 39 161 39 184 q 124 97 39 97 q 200 119 167 97 q 229 161 229 138 q 134 256 229 200 q 51 326 80 288 q 25 399 25 360 q 65 496 25 442 q 179 610 115 563 q 327 669 259 669 q 413 643 373 669 q 454 586 454 616 q 426 530 454 574 z "},"t":{"ha":399,"x_min":-57,"x_max":458,"o":"m 347 566 l 263 567 q 175 321 233 467 q 117 142 117 176 q 131 106 117 113 q 174 152 146 121 l 221 224 l 253 175 q 12 -49 102 -49 q -42 -13 -24 -49 q -57 53 -57 16 q 19 295 -57 109 l 43 353 q 102 506 77 437 q 114 544 112 532 q 52 598 113 560 l 117 647 l 164 644 q 174 685 168 666 q 191 735 178 697 l 213 807 l 288 839 l 384 892 l 339 763 l 293 646 l 458 646 l 347 566 z "},"u":{"ha":611,"x_min":-90,"x_max":594,"o":"m 269 229 q -35 -43 59 -43 q -75 -28 -60 -43 q -90 10 -90 -18 q -87 35 -90 25 q -64 111 -83 61 q -21 216 -50 146 q 81 513 81 464 q 62 530 81 530 l 41 528 l 33 557 q 228 674 176 674 q 258 662 246 674 q 267 631 267 650 q 183 387 267 593 q 95 153 96 176 l 98 141 q 103 140 100 140 q 257 285 148 140 q 452 640 369 433 l 519 654 l 581 668 l 594 655 q 377 119 377 178 q 406 89 377 89 q 425 92 418 89 l 467 101 l 467 63 q 261 -47 312 -47 q 224 -30 240 -47 q 210 12 214 -16 q 269 229 210 88 z "},"v":{"ha":477,"x_min":-37,"x_max":549,"o":"m 439 483 q 323 263 378 353 q 196 83 262 166 q 42 -43 94 -43 q -37 130 -37 -43 q 96 632 -37 347 q 215 684 126 641 l 232 692 l 248 689 l 252 675 l 235 634 q 181 500 197 544 q 138 362 154 427 q 120 233 120 290 q 148 151 120 155 q 181 172 161 152 q 205 198 189 178 q 235 235 232 231 q 322 395 288 311 q 357 517 357 478 q 333 565 357 553 q 288 583 331 566 l 376 640 l 443 691 l 469 676 l 549 630 q 439 483 488 586 z "},"w":{"ha":753,"x_min":-45,"x_max":817,"o":"m 298 299 q 134 62 220 159 q -12 -49 37 -49 q -38 -33 -28 -49 q -45 0 -45 -16 q -1 245 -45 33 q 59 629 41 449 q 204 686 144 654 l 227 694 l 243 688 l 233 653 l 221 618 q 134 220 134 368 q 147 189 134 189 q 249 311 189 189 q 332 619 312 438 q 475 690 368 633 l 490 686 l 494 675 q 431 241 431 399 q 435 196 431 210 q 439 189 437 189 q 484 241 452 189 q 562 366 510 282 q 627 519 627 470 q 617 549 627 538 q 562 576 607 560 l 706 691 l 763 663 l 817 630 q 683 451 772 596 l 591 302 q 408 41 510 171 q 309 -49 338 -49 q 281 -38 288 -49 q 272 -9 273 -30 l 280 123 l 298 299 z "},"x":{"ha":514,"x_min":-229,"x_max":600,"o":"m 518 587 q 427 484 487 549 q 201 253 326 375 q 333 70 245 63 l 349 71 l 387 79 l 390 48 q 180 -39 241 -39 q 99 62 137 -39 q 72 134 92 83 q -134 -26 -50 28 l -229 -26 q -94 71 -151 24 q 50 198 -87 76 l 37 271 q 35 419 31 376 q 48 490 37 432 q 94 641 64 565 l 160 659 l 258 691 q 185 385 185 513 l 185 350 l 187 331 q 282 445 220 365 q 439 653 363 549 l 507 665 l 600 691 q 518 587 547 622 z "},"y":{"ha":582,"x_min":-130,"x_max":604,"o":"m 270 222 q 104 47 186 117 q -31 -37 8 -37 q -76 27 -76 -37 q -33 180 -76 73 q 30 333 -2 256 q 87 519 87 484 q 73 534 87 534 l 60 533 l 39 526 l 28 557 q 104 619 60 585 q 225 690 195 690 q 271 633 271 690 q 208 444 271 608 l 126 233 q 98 145 98 159 l 101 133 q 107 132 103 132 q 254 275 152 132 q 441 633 355 418 l 584 695 l 595 692 l 604 681 q 574 616 595 659 q 379 147 464 394 q 231 -163 302 -77 q 86 -279 176 -229 q -56 -330 -3 -330 q -111 -304 -90 -330 q -130 -247 -130 -281 q 5 -57 -130 -163 l 28 -68 l 10 -117 l 6 -153 q 50 -227 6 -204 q 214 60 132 -164 q 270 222 240 132 z "},"z":{"ha":509,"x_min":-145,"x_max":556,"o":"m 326 530 l 315 528 q 239 543 294 528 q 155 555 190 555 l 146 555 l 140 555 l 121 525 l 102 477 l 8 455 q 132 625 70 570 q 261 685 201 685 q 336 671 290 685 q 380 657 351 667 q 427 635 395 652 q 519 689 487 689 q 545 684 535 689 q 556 660 556 675 q 447 552 556 605 q 222 294 311 391 q 102 170 157 222 q 163 128 127 156 q 237 93 207 93 q 292 117 266 93 q 332 191 318 141 l 385 199 q 290 14 346 80 q 176 -56 232 -56 q 74 -1 134 -56 q -12 56 22 45 q -125 -23 -90 -23 l -141 -18 l -145 -1 q -122 70 -145 36 l -123 68 q -92 125 -103 106 q -52 173 -71 157 q 7 194 -26 194 l 20 193 l 34 191 q 326 530 161 311 z "},"{":{"ha":694,"x_min":111,"x_max":585,"o":"m 568 -165 q 358 -112 418 -165 q 298 76 298 -58 l 298 213 q 261 354 298 317 q 111 401 223 391 l 111 463 q 262 509 218 463 q 298 650 298 547 l 298 787 q 359 977 298 923 q 568 1028 418 1028 l 585 1028 l 585 972 q 457 940 488 972 q 426 806 426 908 l 426 712 q 385 500 426 556 q 271 431 350 454 q 383 361 349 408 q 426 149 426 303 l 426 55 q 467 -86 426 -58 q 585 -110 500 -110 l 585 -165 l 568 -165 z "},"|":{"ha":694,"x_min":288,"x_max":409,"o":"m 288 -328 l 288 1061 l 409 1061 l 409 -328 l 288 -328 z "},"}":{"ha":694,"x_min":109,"x_max":585,"o":"m 490 389 q 434 355 454 376 q 398 213 398 316 l 398 76 q 339 -114 398 -62 q 127 -165 279 -165 l 109 -165 l 109 -110 q 239 -76 206 -110 q 269 55 269 -44 l 269 149 q 311 361 269 305 q 425 431 345 407 q 313 501 348 454 q 269 712 269 560 l 269 806 q 231 946 269 916 q 109 972 199 972 l 109 1028 l 127 1028 q 339 976 281 1028 q 398 787 398 924 l 398 650 q 434 510 398 547 q 585 462 471 473 l 585 400 q 490 389 522 400 z "},"~":{"ha":1157,"x_min":111,"x_max":1048,"o":"m 906 342 q 872 331 906 342 q 774 319 838 319 q 597 356 707 319 l 574 363 l 564 368 q 382 404 473 404 q 111 297 275 404 l 111 416 q 383 510 261 510 q 475 501 428 510 q 616 461 522 492 q 775 426 721 426 q 1048 531 886 426 l 1048 412 q 906 342 973 364 z "},"†":{"ha":694,"x_min":117,"x_max":677,"o":"m 640 618 l 534 640 l 429 659 l 423 613 l 421 572 l 423 528 l 427 488 q 370 348 404 435 q 309 184 332 251 q 257 21 289 127 q 201 -174 224 -90 l 140 -174 l 145 -157 l 206 159 q 251 425 224 248 q 255 492 255 464 q 323 601 279 529 q 351 657 337 626 l 290 649 l 117 617 l 157 757 q 220 744 193 748 q 268 737 236 742 q 378 725 304 732 q 399 867 389 790 l 412 967 q 414 1023 414 979 l 594 1023 l 503 844 l 453 725 q 677 758 548 731 l 640 618 z "},"¢":{"ha":579,"x_min":35,"x_max":548,"o":"m 481 412 l 446 422 l 448 445 l 450 452 q 429 490 450 474 q 380 517 412 507 l 276 262 q 307 254 290 258 q 374 252 366 251 q 439 269 382 252 l 367 129 l 326 121 l 292 118 l 249 119 l 218 126 l 182 39 l 94 23 l 151 151 q 44 278 70 198 q 35 338 35 307 q 98 503 35 424 q 241 615 155 574 q 354 643 296 642 l 387 732 l 473 749 l 427 633 q 456 627 437 631 q 505 606 463 623 q 548 582 519 598 l 481 412 m 301 534 l 279 534 q 179 508 209 534 q 149 415 149 482 q 211 297 149 347 l 307 534 l 301 534 z "},"£":{"ha":758,"x_min":-71,"x_max":724,"o":"m 172 152 l 172 152 l 202 156 q 332 119 228 156 l 462 73 q 514 61 494 61 q 557 83 540 61 q 601 178 574 103 l 646 178 q 464 -56 600 -56 q 429 -53 441 -56 q 283 -6 395 -50 l 225 19 q 102 57 135 57 l 93 56 l 83 55 q -38 -49 9 -49 q -64 -42 -52 -49 l -71 -23 q 79 115 -71 47 q 121 214 103 158 q 151 330 138 269 l 100 329 l 12 323 l 39 408 l 157 400 q 208 591 186 535 q 416 795 258 722 q 582 838 507 838 q 675 813 629 838 q 724 768 724 787 q 694 679 724 745 q 615 544 664 614 l 557 535 l 597 610 l 604 653 q 564 722 604 693 q 461 753 522 753 q 387 664 426 753 q 317 399 348 574 l 381 402 l 469 408 l 439 323 l 366 329 l 296 330 q 172 152 275 262 z "},"§":{"ha":694,"x_min":-49,"x_max":703,"o":"m 597 735 l 562 758 q 596 817 572 778 q 602 849 600 829 q 549 918 602 895 q 457 934 510 934 q 283 803 283 934 q 336 693 283 749 q 433 611 359 669 q 545 517 519 545 q 608 392 608 452 q 446 189 608 262 q 516 50 516 127 q 483 -68 516 -18 q 193 -243 367 -243 q -49 -151 53 -243 q 16 22 -38 -64 q 64 89 27 38 l 112 68 q 68 8 77 30 q 56 -28 61 -3 q 115 -117 57 -78 q 260 -159 177 -159 q 365 -123 321 -159 q 408 -28 408 -87 q 244 170 408 49 q 74 318 113 267 q 35 422 35 369 q 92 556 35 500 q 225 625 144 608 q 179 727 179 677 q 278 929 179 836 q 507 1021 376 1021 q 703 961 621 1021 q 597 735 671 831 m 313 534 l 259 578 q 180 550 211 578 q 151 489 151 528 q 395 228 151 408 l 397 227 q 462 266 440 238 q 488 330 488 294 q 313 534 488 391 z "},"•":{"ha":820,"x_min":198,"x_max":620,"o":"m 408 315 q 259 374 321 315 q 198 517 198 433 q 261 659 198 602 q 410 717 324 717 q 559 659 498 717 q 620 517 620 601 q 557 373 620 431 q 408 315 494 315 z "},"¶":{"ha":694,"x_min":35,"x_max":661,"o":"m 578 926 l 578 0 l 483 0 l 483 926 l 384 926 l 384 0 l 288 0 l 288 521 q 108 591 184 524 q 35 762 35 656 q 111 938 35 871 q 311 1003 186 1003 l 661 1003 l 661 926 l 578 926 z "},"ß":{"ha":650,"x_min":-271,"x_max":638,"o":"m 458 589 q 574 465 574 584 q 559 366 571 433 q 402 81 513 202 q 252 -36 319 -9 q 178 -50 215 -50 q 125 -36 148 -50 q 97 9 98 -20 q 212 204 96 61 l 239 181 q 212 128 222 152 q 206 92 209 115 q 273 33 206 50 q 363 197 318 66 q 412 437 412 343 q 340 534 412 534 q 253 483 311 534 l 280 603 l 321 593 l 345 589 l 359 589 l 379 593 q 465 702 429 628 q 500 844 500 775 q 488 888 500 876 q 454 902 478 902 q 391 866 424 902 q 196 399 314 782 l 142 222 q -43 -211 42 -103 q -205 -335 -142 -335 q -271 -256 -271 -335 q -233 -135 -271 -197 q -203 -98 -222 -119 l -152 -81 l -177 -142 q -182 -178 -182 -159 q -168 -221 -182 -208 q -144 -237 -159 -235 q -3 182 -106 -176 l 67 427 l -27 427 l 104 539 q 271 850 184 766 q 418 946 328 905 q 549 986 507 986 q 638 886 638 986 q 458 589 638 713 z "},"´":{"ha":694,"x_min":345,"x_max":688,"o":"m 462 794 l 345 781 l 503 966 l 688 985 l 462 794 z "},"¨":{"ha":694,"x_min":243,"x_max":734,"o":"m 669 846 q 647 834 669 846 q 578 821 626 821 q 562 822 570 821 q 536 826 554 823 q 481 845 518 829 l 592 944 q 686 922 635 928 q 734 920 695 920 q 669 846 712 871 m 431 846 q 339 821 389 821 q 243 845 297 821 l 351 944 q 456 922 407 923 q 494 920 460 920 q 431 846 471 871 z "},"Æ":{"ha":1260,"x_min":-238,"x_max":1261,"o":"m 1217 803 q 1195 777 1217 803 q 1080 685 1173 750 l 1038 707 q 1116 800 1116 763 q 1085 853 1116 830 q 1010 877 1054 877 q 972 872 986 877 q 937 859 954 869 q 850 712 850 781 q 918 611 850 655 q 1089 567 985 567 l 1135 567 q 1006 481 1092 538 q 977 457 996 474 l 918 463 l 885 466 q 700 387 783 450 q 603 218 603 313 q 745 97 603 97 q 940 159 857 97 q 957 184 945 166 q 1019 307 995 240 l 1111 319 q 897 52 1022 145 q 636 -44 768 -44 q 451 203 446 -44 l 452 264 l 458 321 l 427 318 l 330 318 l 278 322 q 26 -33 122 74 q -144 -147 -77 -147 q -213 -118 -188 -147 q -238 -46 -238 -89 q -75 273 -238 92 l -19 278 q -130 66 -130 143 q -118 30 -130 41 q -89 16 -106 16 q 24 85 -45 16 q 214 326 92 153 l 177 328 l 90 339 l 210 399 l 292 448 q 533 981 533 848 l 622 1013 l 713 1047 q 638 729 665 899 q 595 347 598 476 q 798 496 661 441 q 691 626 691 542 q 807 820 691 713 q 1031 989 940 941 q 1112 1010 1074 1010 q 1217 978 1172 1010 q 1261 905 1261 945 q 1217 803 1261 857 m 446 618 l 395 519 q 343 429 383 497 l 397 419 l 459 416 l 468 417 q 476 506 469 450 q 486 587 480 538 l 506 739 q 446 618 479 681 z "},"Ø":{"ha":932,"x_min":-64,"x_max":1005,"o":"m 864 945 q 949 722 949 854 q 648 151 949 409 q 254 -47 416 -47 q 127 -18 201 -47 l 23 -155 l -64 -155 l 68 18 q -16 240 -16 81 q 104 612 -16 429 q 435 930 224 795 l 484 922 q 234 640 320 796 q 148 337 148 484 q 193 182 148 239 l 695 832 q 614 854 667 854 q 375 680 496 854 l 313 677 l 454 851 q 558 990 492 895 q 685 1016 609 1016 q 811 985 755 1016 l 918 1128 l 1005 1128 l 864 945 m 742 783 l 241 134 q 392 87 291 87 q 604 191 505 87 q 732 393 680 271 q 785 625 785 515 q 742 783 785 722 z "},"¥":{"ha":758,"x_min":-55,"x_max":869,"o":"m 545 488 l 522 460 l 726 460 l 707 397 l 469 397 l 432 349 l 409 321 l 688 321 l 668 258 l 361 258 l 260 -27 q 180 -36 219 -27 l 85 -58 l 220 258 l -55 258 l -37 321 l 221 321 l 216 355 l 208 397 l -13 397 l 5 460 l 197 460 l 179 571 q 127 705 158 705 q 102 701 115 705 l 54 677 l 41 703 q 225 829 197 829 q 303 595 277 829 l 317 460 l 424 460 l 532 612 l 664 790 l 736 812 l 869 845 q 545 488 797 795 m 332 329 l 377 397 l 325 397 l 332 329 z "},"ª":{"ha":406,"x_min":-94,"x_max":389,"o":"m 143 638 q 52 550 102 591 q -52 494 -16 494 q -94 556 -94 494 q -20 771 -94 648 q 12 819 1 806 q 117 930 47 873 q 269 998 191 988 q 305 982 287 998 q 328 958 319 974 q 347 969 337 962 l 371 982 l 385 978 l 389 966 q 382 949 383 955 q 363 913 376 939 q 298 773 341 867 q 248 611 248 657 l 252 599 q 253 598 252 598 q 268 604 258 598 l 308 642 l 314 596 q 156 497 217 497 q 128 511 138 497 q 118 541 118 521 q 143 638 118 576 m 258 895 l 271 893 l 240 872 q 216 915 227 903 q 191 924 203 924 q 141 879 176 924 q 75 762 105 834 q 42 634 42 685 q 50 608 42 608 q 101 645 63 608 q 176 741 136 677 q 193 774 181 748 q 236 859 218 827 l 254 891 q 258 898 254 892 l 261 891 l 258 895 z "},"º":{"ha":376,"x_min":-71,"x_max":360,"o":"m 352 854 q 224 630 323 730 q 16 492 88 492 q -71 600 -71 492 q 4 806 -71 694 q 205 1008 79 918 l 252 1002 q 101 831 151 919 q 50 669 50 744 q 110 597 50 597 q 144 606 121 597 q 210 732 182 661 q 240 867 240 810 q 235 899 240 886 q 220 906 230 906 l 212 905 l 193 896 l 176 916 l 307 1015 q 360 924 360 1012 q 352 854 360 890 z "},"æ":{"ha":701,"x_min":-121,"x_max":719,"o":"m 201 185 q 71 41 140 102 q -68 -39 -21 -39 q -121 45 -121 -39 q -62 277 -121 145 q 63 484 -10 393 q 160 581 104 535 q 262 650 211 623 q 334 678 314 678 q 402 620 359 678 l 433 644 l 457 656 l 469 650 l 477 641 l 470 612 l 460 589 q 654 669 575 669 q 719 614 712 669 q 679 522 719 574 q 606 450 647 480 q 448 358 515 380 q 374 340 399 342 q 347 191 347 254 q 422 81 347 81 l 432 81 l 437 81 q 494 176 463 107 q 507 225 498 187 l 589 231 q 457 35 548 117 q 302 -49 364 -49 q 217 -1 248 -49 q 191 96 191 41 l 191 122 q 201 185 191 138 m 524 566 l 509 562 l 507 562 q 410 429 444 512 l 425 425 l 455 423 l 465 423 l 485 425 q 550 530 550 475 q 524 566 550 561 m 346 537 l 360 536 l 319 508 q 253 583 294 583 q 183 515 230 583 q 96 343 136 445 q 52 157 52 231 q 58 123 52 134 q 67 116 61 116 q 138 170 89 116 q 237 310 186 224 q 286 412 252 334 q 349 545 305 457 l 349 533 l 346 537 z "},"ø":{"ha":502,"x_min":-159,"x_max":563,"o":"m 464 654 q 475 613 471 639 q 477 594 475 603 q 330 197 477 385 q 159 24 245 89 q 20 -46 66 -46 l -7 -42 l -27 -33 l -91 -122 l -159 -122 l -69 4 q -88 55 -79 24 q -92 106 -92 72 q 6 405 -92 245 q 275 694 105 564 l 327 687 q 128 440 198 570 q 58 216 54 302 l 59 185 l 320 547 q 305 562 316 561 l 288 557 l 258 543 l 239 566 l 412 709 l 428 699 l 495 791 l 563 791 l 464 654 m 82 122 q 143 91 104 91 q 193 112 173 91 q 323 454 296 253 l 82 122 z "},"¿":{"ha":675,"x_min":-45,"x_max":606,"o":"m 453 656 l 416 701 l 354 768 l 495 851 q 530 822 517 834 q 606 742 577 779 l 453 656 m 323 396 q 121 164 121 267 q 236 68 121 68 q 353 114 309 68 q 387 272 353 193 q 450 347 418 347 q 487 267 487 347 q 286 4 487 109 q 115 -43 195 -43 q 3 -7 48 -43 q -45 97 -45 33 q 92 315 -45 208 q 323 456 157 365 l 302 487 l 269 536 l 416 621 l 463 566 l 505 500 q 323 396 389 438 z "},"¡":{"ha":489,"x_min":-48,"x_max":459,"o":"m 306 675 l 258 734 l 206 789 l 349 870 l 404 823 l 459 764 l 306 675 m 123 -8 l -48 -47 l 235 579 l 335 615 l 123 -8 z "},"ƒ":{"ha":758,"x_min":-146,"x_max":738,"o":"m 724 700 q 716 678 724 700 q 677 602 709 656 l 627 593 l 647 645 l 651 673 q 623 735 651 711 q 555 760 595 760 l 553 760 q 430 469 484 711 l 477 470 l 572 473 l 542 392 l 416 401 q 344 109 376 216 q 218 -186 281 -105 q -75 -357 84 -357 q -146 -304 -146 -357 q -45 -86 -146 -212 l 13 -69 q -34 -143 -12 -101 q -42 -193 -42 -166 q -17 -251 -42 -228 q 43 -274 7 -273 q 130 -125 87 -247 q 162 -9 138 -101 q 206 172 174 33 l 260 400 l 127 389 l 154 473 l 208 469 l 257 467 l 277 467 q 345 658 315 605 q 490 791 392 740 q 684 840 585 840 q 738 789 738 840 q 724 700 738 743 z "},"«":{"ha":550,"x_min":-41,"x_max":469,"o":"m 315 371 l 309 361 l 307 347 q 367 245 308 319 q 423 182 383 226 l 319 88 q 263 163 300 113 q 182 305 182 268 q 196 338 182 316 l 235 378 l 436 568 l 469 534 l 315 371 m 94 371 l 87 360 l 84 347 q 201 182 86 309 l 100 88 q -2 223 38 159 q -41 305 -41 285 q -26 338 -41 316 l 12 378 l 216 568 l 249 534 l 94 371 z "},"»":{"ha":550,"x_min":-44,"x_max":466,"o":"m 452 319 q 414 279 445 310 l 211 88 l 178 124 l 333 287 l 338 297 l 342 311 q 227 477 340 351 l 328 569 q 466 352 466 401 q 452 319 466 340 m 231 323 l 221 309 q 216 302 220 307 q 192 279 214 300 l -12 88 l -44 124 l 116 297 l 119 311 q 4 477 118 351 l 105 569 q 244 352 244 406 q 231 323 244 341 z "},"…":{"ha":1389,"x_min":-56,"x_max":1123,"o":"m 981 -44 q 950 -22 963 -31 q 925 -1 934 -7 l 871 54 l 1023 135 l 1073 81 l 1123 31 l 981 -44 m 517 -44 q 486 -22 499 -31 q 461 -1 470 -7 l 407 54 l 559 135 l 608 81 l 660 31 l 517 -44 m 55 -44 q 24 -22 37 -31 q -1 -1 7 -7 l -56 54 l 97 135 l 146 81 l 197 31 l 55 -44 z "},"Œ":{"ha":1518,"x_min":-16,"x_max":1530,"o":"m 1483 803 q 1460 775 1483 803 q 1350 686 1436 747 l 1305 707 q 1369 759 1356 743 q 1384 800 1381 775 q 1353 853 1384 830 q 1278 877 1322 877 q 1240 871 1253 877 q 1205 859 1221 869 q 1119 713 1119 782 q 1186 611 1119 654 q 1357 568 1253 568 l 1403 568 l 1305 503 l 1246 458 l 1199 465 l 1166 467 q 1052 442 1124 471 q 924 361 979 414 q 857 231 857 297 q 916 144 857 174 q 1025 121 962 121 q 1208 161 1146 121 q 1274 269 1231 191 q 1289 309 1277 275 l 1379 320 q 1167 54 1291 146 q 909 -38 1041 -38 q 753 14 816 -38 q 691 144 691 66 l 691 162 q 702 201 691 170 q 256 -46 444 -46 q 55 36 128 -46 q -16 241 -16 114 q 104 611 -16 428 q 435 928 223 793 l 484 920 q 239 648 321 799 q 157 343 157 496 q 221 165 157 233 q 397 94 287 94 q 593 181 509 94 q 727 385 673 264 q 783 624 783 513 q 748 780 783 718 q 617 856 704 856 q 375 680 498 856 l 313 677 l 454 850 q 558 988 492 894 q 685 1014 609 1014 q 873 932 801 1014 q 945 720 945 850 q 848 381 945 552 q 1066 497 941 450 q 968 583 987 531 q 960 627 960 602 q 1041 786 960 699 q 1181 907 1084 831 q 1301 988 1255 964 q 1381 1010 1343 1010 q 1485 979 1440 1010 q 1530 905 1530 947 q 1483 803 1530 859 z "},"œ":{"ha":746,"x_min":-92,"x_max":762,"o":"m 448 538 q 561 627 496 590 q 697 669 636 669 q 743 655 724 669 q 762 612 762 638 q 652 450 762 537 q 589 407 627 430 q 525 371 568 394 q 418 340 464 342 q 389 191 389 272 q 465 81 389 81 l 477 81 l 481 81 q 535 173 513 113 q 549 225 539 184 l 632 231 q 500 35 591 117 q 345 -49 407 -49 q 261 -3 290 -49 q 235 92 237 35 q 21 -45 94 -45 q -66 5 -35 -45 q -92 107 -92 48 q 52 460 -92 258 q 334 671 202 671 q 418 629 388 671 q 448 538 445 594 m 588 555 q 568 566 581 564 l 562 565 l 549 562 q 454 429 485 509 l 469 425 l 498 422 l 524 425 q 571 471 551 441 q 594 530 594 503 q 588 555 594 545 m 231 550 l 205 547 l 182 536 q 64 207 64 357 q 82 135 64 164 q 145 100 104 100 l 171 103 l 195 114 q 280 287 248 195 q 312 443 312 379 q 231 550 312 549 z "},"–":{"ha":694,"x_min":-33,"x_max":728,"o":"m 684 299 l -33 299 l 11 366 l 728 366 l 684 299 z "},"—":{"ha":1389,"x_min":-33,"x_max":1422,"o":"m 1379 299 l -33 299 l 11 366 l 1422 366 l 1379 299 z "},"“":{"ha":604,"x_min":170,"x_max":652,"o":"m 556 905 q 541 882 556 905 q 526 816 526 858 q 545 756 526 787 q 569 720 550 748 l 435 621 q 395 730 395 679 q 458 890 395 809 q 633 1033 519 970 l 652 1001 q 556 905 587 953 m 330 905 q 315 883 330 905 q 300 816 300 861 q 344 720 300 774 l 211 621 q 170 730 170 678 q 234 890 170 809 q 408 1033 296 970 l 428 1001 q 330 905 359 950 z "},"”":{"ha":604,"x_min":155,"x_max":641,"o":"m 579 759 q 548 726 579 759 q 394 648 517 692 l 380 682 q 478 754 441 711 q 511 826 511 791 q 448 935 511 857 l 587 1030 q 641 903 641 964 q 579 759 641 826 m 354 759 q 323 726 354 759 q 169 648 292 692 l 155 682 q 286 826 286 747 q 273 866 286 840 q 223 935 258 892 l 362 1030 q 416 903 416 963 q 354 759 416 826 z "},"‘":{"ha":379,"x_min":170,"x_max":428,"o":"m 330 905 q 315 882 330 905 q 300 816 300 859 q 344 720 300 776 l 211 621 q 170 730 170 678 q 234 890 170 809 q 408 1033 296 970 l 428 1001 q 330 905 360 951 z "},"’":{"ha":379,"x_min":155,"x_max":416,"o":"m 354 759 q 323 726 354 759 q 169 648 292 692 l 155 682 q 286 826 286 747 q 273 866 286 840 q 223 935 258 892 l 362 1030 q 416 903 416 963 q 354 759 416 826 z "},"¤":{"ha":842,"x_min":40,"x_max":804,"o":"m 734 231 l 593 368 q 422 313 513 313 q 250 368 326 313 l 110 231 l 40 298 l 180 435 q 127 600 127 507 q 180 766 127 693 l 40 903 l 110 970 l 250 833 q 421 887 327 887 q 593 833 513 887 l 734 970 l 804 903 l 664 766 q 711 648 696 723 q 716 600 716 623 q 664 435 716 504 l 804 298 l 734 231 m 422 791 q 284 736 342 791 q 227 602 227 680 q 284 467 227 524 q 422 410 342 410 q 561 466 503 410 q 618 602 618 521 q 560 736 618 682 q 422 791 503 791 z "},"‹":{"ha":328,"x_min":-41,"x_max":248,"o":"m 94 371 l 87 360 l 84 347 q 201 182 86 309 l 100 88 q -2 223 38 159 q -41 305 -41 285 q -26 338 -41 316 l 12 378 l 216 568 l 248 534 l 94 371 z "},"›":{"ha":328,"x_min":-43,"x_max":245,"o":"m 231 321 q 192 281 222 309 l -11 90 l -43 125 l 119 298 l 121 311 q 4 476 119 355 l 105 570 q 164 499 129 543 q 245 353 245 390 q 231 321 245 341 z "},"‡":{"ha":694,"x_min":-16,"x_max":679,"o":"m 83 239 q 243 220 137 231 q 252 291 246 244 l 256 377 l 255 416 l 255 459 q 361 659 317 531 q 122 616 260 648 l 161 757 q 224 744 197 748 q 273 737 240 742 q 380 725 309 732 q 415 967 400 835 q 416 1023 416 979 l 598 1023 l 508 844 l 458 725 q 679 758 549 731 l 644 618 l 437 659 l 426 608 l 421 562 l 423 507 l 429 452 q 346 293 387 395 q 319 221 329 250 q 403 231 333 222 q 541 254 471 239 l 506 114 l 405 136 l 297 155 q 266 -174 266 5 l 100 -174 l 178 18 l 223 155 q 182 151 196 153 q 123 139 165 147 q -16 113 85 133 l 23 253 q 83 239 64 242 z "},"·":{"ha":379,"x_min":72,"x_max":254,"o":"m 163 317 q 99 341 126 317 q 72 397 72 365 q 98 454 72 431 q 163 478 125 478 q 227 454 201 478 q 254 397 254 431 q 225 340 254 363 q 163 317 197 317 z "},"‚":{"ha":379,"x_min":-98,"x_max":163,"o":"m 100 -136 q 69 -169 100 -136 q -83 -249 37 -202 l -98 -216 q 1 -142 -33 -183 q 33 -71 33 -104 q -29 37 33 -32 l 111 133 q 153 68 138 98 q 163 7 163 36 q 100 -136 163 -70 z "},"„":{"ha":604,"x_min":-98,"x_max":388,"o":"m 326 -136 q 295 -169 326 -136 q 142 -249 264 -201 l 127 -216 q 258 -71 258 -146 q 197 37 258 -33 l 336 133 q 388 7 388 72 q 326 -136 388 -70 m 100 -136 q 69 -169 100 -136 q -83 -249 37 -202 l -98 -216 q 1 -142 -33 -183 q 33 -71 33 -104 q -29 37 33 -32 l 111 133 q 153 68 138 98 q 163 7 163 36 q 100 -136 163 -70 z "},"‰":{"ha":1556,"x_min":64,"x_max":1441,"o":"m 1413 189 q 1234 -16 1354 48 q 1129 -46 1179 -46 q 1018 8 1065 -46 q 970 140 970 62 q 1069 361 970 250 q 1282 477 1171 477 q 1398 430 1354 477 q 1441 312 1441 382 q 1413 189 1441 258 m 930 186 q 855 71 905 128 q 751 -18 804 12 q 648 -46 700 -46 q 533 7 581 -46 q 487 140 487 59 q 586 362 487 250 q 800 477 688 477 q 913 432 868 477 q 958 312 958 386 q 930 186 958 250 m 209 -45 l 137 -45 l 800 824 l 876 824 l 209 -45 m 505 543 q 326 337 447 408 q 227 307 275 307 q 109 361 157 307 q 64 492 64 412 q 126 671 64 580 q 268 802 184 755 q 375 832 321 832 q 490 785 444 832 q 534 666 534 740 q 505 543 534 609 m 1182 404 l 1177 404 q 1080 197 1080 315 q 1120 80 1080 125 q 1235 33 1164 33 l 1238 33 q 1331 254 1331 122 q 1287 360 1331 315 q 1182 404 1244 404 m 700 404 l 694 404 q 604 252 627 344 q 597 197 597 227 q 640 79 597 125 q 753 33 682 33 l 754 33 q 848 254 848 126 q 805 360 848 315 q 700 404 762 404 m 275 757 l 269 757 q 173 549 173 669 q 214 433 173 478 q 328 385 257 385 l 331 385 q 397 488 372 426 q 423 606 423 549 q 381 713 423 670 q 275 757 339 757 z "},"ˆ":{"ha":694,"x_min":236,"x_max":668,"o":"m 597 780 l 500 929 l 318 781 l 236 821 l 463 1021 l 560 1021 l 668 819 l 597 780 z "},"˜":{"ha":694,"x_min":276,"x_max":701,"o":"m 587 836 q 531 834 570 832 l 506 839 l 429 859 l 406 864 l 391 866 q 361 857 377 865 q 321 817 349 849 l 276 836 q 416 958 353 962 l 432 956 l 457 951 l 544 930 l 570 926 l 581 924 q 658 975 625 925 l 701 960 q 636 863 664 890 q 587 836 612 842 z "},"¯":{"ha":694,"x_min":281,"x_max":694,"o":"m 668 846 l 281 846 l 307 941 l 694 941 l 668 846 z "},"ˉ":{"ha":694,"x_min":281,"x_max":694,"o":"m 668 846 l 281 846 l 307 941 l 694 941 l 668 846 z "},"¸":{"ha":694,"x_min":43,"x_max":347,"o":"m 222 -75 l 239 -73 q 315 -93 283 -73 q 347 -144 347 -113 q 276 -240 347 -192 q 135 -289 206 -289 q 99 -284 112 -289 q 79 -278 86 -279 q 43 -256 64 -273 l 81 -206 q 121 -229 98 -219 q 165 -234 138 -234 q 225 -216 191 -234 q 245 -194 245 -205 q 222 -168 245 -181 q 144 -157 196 -153 l 124 -163 l 97 -145 l 212 0 l 281 0 l 222 -75 z "},"Š":{"ha":726,"x_min":-56,"x_max":871,"o":"m 643 1104 l 545 1104 l 438 1321 l 509 1362 l 606 1202 l 788 1360 l 871 1318 l 643 1104 m 711 780 q 687 744 711 780 q 595 644 663 708 l 532 651 q 600 718 585 696 q 612 764 612 739 q 562 840 612 814 q 468 859 524 859 q 262 711 262 859 q 335 603 262 656 q 456 534 368 578 q 549 469 522 502 q 585 363 585 427 q 344 18 585 195 q 142 -47 254 -47 q 8 -4 73 -47 q -56 72 -56 39 q 37 273 -56 131 q 100 357 64 314 l 189 364 q 102 280 122 313 q 81 222 81 248 q 131 150 81 179 q 262 118 183 118 q 419 152 372 118 q 464 257 464 183 q 416 347 464 309 q 323 399 389 368 q 195 473 232 441 q 138 602 138 526 q 228 815 138 701 q 406 970 308 916 q 567 1015 488 1015 q 701 966 644 1015 q 760 873 760 916 q 711 780 760 852 z "},"™":{"ha":1142,"x_min":152,"x_max":981,"o":"m 798 612 l 798 650 l 828 652 q 844 657 838 653 q 848 676 848 665 l 848 870 l 749 611 l 720 611 l 621 871 l 621 676 q 626 658 621 663 q 627 657 627 657 q 642 652 633 653 l 673 650 l 673 612 l 519 612 l 519 650 l 550 652 q 566 656 560 653 q 570 677 568 664 l 570 914 q 566 932 570 928 q 519 943 561 937 l 519 978 l 666 978 l 751 745 l 842 978 l 981 978 l 981 943 q 937 936 964 943 q 932 916 935 930 l 932 676 q 952 652 932 653 l 981 650 l 981 612 l 798 612 m 450 842 q 425 918 450 896 q 368 939 406 939 l 367 939 l 367 676 q 372 659 367 663 q 387 652 376 653 l 417 650 l 417 612 l 224 612 l 224 650 l 254 652 q 270 657 265 653 q 275 676 275 665 l 275 939 q 209 911 228 939 q 189 842 197 892 l 152 842 l 160 978 l 481 978 l 489 842 l 450 842 z "},"š":{"ha":469,"x_min":-107,"x_max":624,"o":"m 397 768 l 300 768 l 192 983 l 263 1025 l 360 866 l 542 1023 l 624 981 l 397 768 m 426 536 q 340 411 387 475 l 303 422 l 324 461 l 328 483 q 296 539 327 519 q 231 557 269 557 q 163 536 193 557 q 134 490 134 515 q 181 425 134 463 q 252 376 209 403 q 338 260 338 323 q 250 100 338 204 q 33 -41 130 -41 q -107 61 -79 -41 q 43 252 -60 146 l 77 235 q 38 162 38 186 q 124 98 38 98 q 190 114 158 98 q 229 163 229 133 q 134 258 229 202 q 50 330 79 290 q 24 403 24 364 q 64 501 24 447 q 212 638 131 590 q 327 676 276 676 q 413 649 373 676 q 454 591 454 623 q 426 536 454 580 z "},"Ÿ":{"ha":868,"x_min":67,"x_max":1002,"o":"m 873 1169 q 852 1154 873 1169 q 782 1140 831 1140 q 766 1141 774 1140 q 686 1168 736 1142 l 796 1281 q 823 1272 806 1277 q 864 1261 834 1268 q 939 1255 892 1255 q 873 1169 916 1198 m 635 1169 q 614 1154 635 1169 q 543 1140 593 1140 q 448 1168 502 1140 l 556 1281 q 582 1272 565 1278 q 660 1256 623 1259 q 699 1255 680 1255 q 635 1169 676 1198 m 947 965 q 861 815 922 929 q 611 294 741 593 q 467 -22 500 40 q 361 -153 433 -87 q 302 -203 344 -168 q 157 -296 199 -289 q 123 -271 137 -296 q 114 -217 114 -250 q 186 -26 114 -140 q 110 92 104 5 l 114 148 l 128 221 l 132 237 q 218 764 218 577 q 167 844 218 844 q 75 812 131 844 l 67 856 q 338 1026 308 1026 q 385 922 385 1026 q 328 562 385 794 q 272 235 272 330 q 311 161 272 161 q 488 374 366 161 q 748 940 612 590 l 850 977 l 1002 1036 q 947 965 958 983 m 472 278 l 484 282 q 339 77 412 164 q 225 -30 267 -8 q 208 -110 216 -54 q 210 -134 208 -125 q 213 -153 213 -146 q 224 -182 218 -169 q 470 289 342 -102 l 476 277 l 472 278 z "}," ":{"ha":758,"x_min":0,"x_max":0,"o":""},"¦":{"ha":694,"x_min":288,"x_max":409,"o":"m 288 446 l 288 971 l 409 971 l 409 446 l 288 446 m 288 -237 l 288 288 l 409 288 l 409 -237 l 288 -237 z "},"©":{"ha":1142,"x_min":79,"x_max":1063,"o":"m 1026 279 q 761 16 947 92 q 571 -22 667 -22 q 223 119 370 -22 q 79 460 79 259 q 223 800 79 656 q 572 943 367 943 q 918 804 773 943 q 1063 460 1063 663 q 1026 279 1063 367 m 951 616 q 730 835 888 767 q 572 866 655 866 q 345 798 448 866 q 195 615 242 729 q 161 460 161 537 q 282 176 161 292 q 415 85 348 113 q 571 57 486 57 q 861 174 745 57 q 982 460 982 297 q 951 616 982 540 m 705 198 q 673 179 705 198 q 564 159 642 159 q 357 246 441 159 q 275 454 275 331 q 356 666 275 580 q 563 751 438 751 q 720 708 610 751 q 753 749 746 709 l 796 749 l 798 519 l 750 519 q 568 700 709 700 q 416 464 416 700 q 582 220 416 220 q 770 342 688 220 l 812 313 q 705 198 768 237 z "},"¬":{"ha":1157,"x_min":162,"x_max":995,"o":"m 882 243 l 882 475 l 162 475 l 162 583 l 995 583 l 995 243 l 882 243 z "},"­":{"ha":370,"x_min":-58,"x_max":304,"o":"m 157 278 l 96 283 l 54 284 q -36 273 7 286 l -58 290 l 90 387 l 154 381 q 238 382 212 376 q 283 392 255 382 l 304 374 l 157 278 z "},"−":{"ha":370,"x_min":-58,"x_max":304,"o":"m 157 278 l 96 283 l 54 284 q -36 273 7 286 l -58 290 l 90 387 l 154 381 q 238 382 212 376 q 283 392 255 382 l 304 374 l 157 278 z "},"®":{"ha":1142,"x_min":79,"x_max":1063,"o":"m 1023 271 q 755 12 939 82 q 564 -22 667 -22 q 381 16 473 -22 q 223 119 290 55 q 79 460 79 259 q 222 800 79 655 q 572 943 363 943 q 923 799 778 943 q 1026 640 988 734 q 1063 456 1063 549 q 1023 271 1063 360 m 949 618 q 730 835 886 768 q 572 866 655 866 q 345 798 448 866 q 195 615 242 729 q 161 460 161 537 q 281 176 161 293 q 491 64 370 89 q 571 57 530 57 q 728 87 654 57 q 911 236 842 134 q 980 460 980 339 q 949 618 980 543 m 853 212 q 837 196 853 212 q 766 180 822 180 q 667 224 687 180 q 648 304 648 254 q 644 365 648 347 q 519 450 618 450 l 510 450 l 510 296 q 524 258 510 269 q 591 241 537 245 l 591 191 l 307 191 l 307 241 q 374 256 360 241 q 389 296 389 267 l 389 639 q 375 681 389 670 q 307 697 361 692 l 307 746 l 587 746 q 747 709 687 746 q 811 606 811 671 q 648 467 811 503 q 764 334 739 431 l 772 290 q 800 240 780 240 q 823 256 814 240 q 833 327 833 279 l 884 327 l 884 305 q 853 212 884 245 m 653 672 q 638 685 653 672 q 568 698 623 698 q 510 661 510 698 l 510 498 l 520 497 l 543 497 q 683 602 683 497 q 653 672 683 646 z "},"°":{"ha":457,"x_min":23,"x_max":434,"o":"m 228 597 q 82 654 141 597 q 23 792 23 711 q 83 930 23 873 q 229 987 144 987 q 374 930 315 987 q 434 792 434 873 q 373 653 434 709 q 228 597 312 597 m 229 907 q 143 874 178 907 q 107 793 107 842 q 143 710 107 745 q 229 676 178 676 q 315 711 279 676 q 350 793 350 745 q 315 875 350 843 q 229 907 279 907 z "},"±":{"ha":1157,"x_min":162,"x_max":995,"o":"m 637 471 l 637 247 l 521 247 l 521 471 l 162 471 l 162 584 l 521 584 l 521 808 l 637 808 l 637 584 l 995 584 l 995 471 l 637 471 m 162 19 l 162 133 l 995 133 l 995 19 l 162 19 z "},"²":{"ha":500,"x_min":-81,"x_max":460,"o":"m 368 551 q 134 401 286 479 l 258 390 l 279 390 q 372 414 332 390 l 406 407 l 294 291 l 28 318 l -68 291 l -81 313 q 1 397 -54 341 q 14 411 9 405 l 52 407 q 253 536 174 460 q 330 669 330 609 q 236 751 330 751 q 180 720 191 751 q 139 634 163 667 q 92 597 113 597 q 77 613 79 606 q 73 627 74 618 q 72 642 72 632 q 162 774 72 726 q 328 814 236 814 q 419 788 384 814 q 460 705 460 759 q 368 551 460 633 z "},"³":{"ha":500,"x_min":-20,"x_max":460,"o":"m -5 377 l -6 376 l 9 380 q 84 363 28 380 q 170 347 139 347 q 251 371 219 347 q 283 427 283 395 q 165 521 283 487 q 45 531 130 531 l 191 607 l 204 607 l 231 606 l 252 602 q 339 689 339 637 q 256 744 339 744 l 231 741 l 215 737 q 137 618 186 629 q 121 633 125 626 l 118 654 q 193 774 118 729 q 338 812 258 812 q 425 788 390 812 q 460 726 460 764 q 306 583 460 639 q 378 484 378 551 q 301 358 378 421 q 117 283 209 283 q 24 308 66 283 q -20 359 -18 333 q -5 377 -15 375 z "},"µ":{"ha":793,"x_min":-80,"x_max":766,"o":"m 453 96 q 261 -23 383 -23 q 112 84 146 -23 q 80 -104 98 14 q -10 -285 53 -285 q -63 -263 -47 -285 q -80 -212 -80 -241 q -33 -26 -80 -178 q 9 120 -12 43 q 119 600 36 220 l 252 600 l 172 225 q 170 170 169 180 q 195 123 174 144 q 270 99 221 99 q 419 242 388 99 l 498 600 l 635 600 l 545 186 q 557 111 541 127 q 602 96 571 96 q 686 152 665 96 l 705 201 q 741 244 720 242 q 761 233 757 240 l 766 217 q 747 120 766 184 q 667 6 717 44 q 576 -23 629 -23 q 453 96 467 -23 z "},"μ":{"ha":793,"x_min":-80,"x_max":766,"o":"m 453 96 q 261 -23 383 -23 q 112 84 146 -23 q 80 -104 98 14 q -10 -285 53 -285 q -63 -263 -47 -285 q -80 -212 -80 -241 q -33 -26 -80 -178 q 9 120 -12 43 q 119 600 36 220 l 252 600 l 172 225 q 170 170 169 180 q 195 123 174 144 q 270 99 221 99 q 419 242 388 99 l 498 600 l 635 600 l 545 186 q 557 111 541 127 q 602 96 571 96 q 686 152 665 96 l 705 201 q 741 244 720 242 q 761 233 757 240 l 766 217 q 747 120 766 184 q 667 6 717 44 q 576 -23 629 -23 q 453 96 467 -23 z "},"¹":{"ha":502,"x_min":68,"x_max":421,"o":"m 204 315 q 165 307 191 313 q 68 276 143 299 l 203 591 q 264 740 244 685 q 151 715 224 725 l 156 757 q 239 776 206 766 q 287 793 251 781 q 328 808 301 798 q 421 859 361 823 l 204 315 z "},"¼":{"ha":1187,"x_min":64,"x_max":1171,"o":"m 1042 219 l 1048 218 l 1109 218 l 1171 221 l 1113 166 l 1090 140 l 1057 140 l 1008 144 l 944 -16 l 882 -22 l 818 -35 l 904 146 l 774 146 l 743 143 l 651 141 l 996 416 l 1040 458 l 1095 468 l 1164 486 l 1042 219 m 300 -45 l 226 -45 l 888 836 l 961 836 l 300 -45 m 195 338 l 137 326 l 64 302 l 195 606 l 249 742 l 211 728 l 142 717 l 149 757 q 403 856 282 784 l 195 338 m 1000 364 l 978 345 l 823 222 l 935 218 l 1000 364 z "},"½":{"ha":1187,"x_min":64,"x_max":1149,"o":"m 1059 226 q 840 84 981 155 l 956 75 l 977 75 q 1065 97 1030 75 l 1097 90 l 991 -21 l 739 5 l 644 -20 l 632 -1 l 688 57 l 722 94 l 760 92 q 951 213 878 143 q 1025 339 1025 283 q 935 415 1025 415 q 882 387 895 415 q 844 307 867 339 q 797 269 819 271 q 782 287 785 279 l 779 311 q 850 431 779 385 q 1023 476 918 476 q 1149 373 1149 476 q 1059 226 1149 307 m 300 -45 l 226 -45 l 888 836 l 961 836 l 300 -45 m 195 338 l 137 326 l 64 302 l 195 606 l 249 742 l 211 728 l 142 717 l 149 757 q 403 856 282 784 l 195 338 z "},"¾":{"ha":1187,"x_min":-18,"x_max":1171,"o":"m 1042 219 l 1048 218 l 1109 218 l 1171 220 l 1113 166 l 1090 140 l 1057 140 l 1008 144 l 944 -16 l 882 -22 l 818 -35 l 904 146 l 774 146 l 743 143 l 651 141 l 996 416 l 1040 458 l 1095 468 l 1164 486 l 1042 219 m 300 -45 l 226 -45 l 888 836 l 961 836 l 300 -45 m 393 644 q 292 593 357 615 q 362 499 362 559 q 305 394 362 442 q 113 309 205 309 q 24 332 63 309 q -18 382 -15 355 l -11 398 l 7 402 q 82 387 29 402 q 163 371 136 371 q 240 393 209 371 q 271 445 271 416 q 157 534 271 503 q 41 543 125 543 l 181 617 l 195 617 l 214 616 l 239 612 q 322 694 322 648 q 301 730 322 714 q 245 745 277 745 l 218 742 l 205 739 q 131 627 172 627 q 116 640 119 633 l 113 660 q 177 767 113 723 q 322 812 241 812 q 400 793 368 812 q 440 729 440 770 q 393 644 440 682 m 1000 364 l 978 345 l 823 222 l 935 218 l 1000 364 z "},"À":{"ha":875,"x_min":-228,"x_max":816,"o":"m 687 1124 l 488 1341 l 671 1308 l 816 1099 l 687 1124 m 581 18 q 500 -29 530 -29 q 458 0 475 -29 q 441 68 439 32 l 449 168 l 467 323 l 435 320 l 341 320 l 288 323 q 35 -33 133 76 q -135 -147 -68 -147 q -203 -118 -178 -147 q -228 -45 -228 -89 q -64 274 -228 96 l -9 279 q -120 67 -120 137 q -109 30 -120 42 q -79 17 -99 17 q 35 87 -35 17 q 224 328 102 153 l 187 330 l 100 340 l 219 401 l 301 450 q 477 777 417 644 q 543 985 543 921 l 632 1017 l 724 1051 q 651 748 675 900 q 616 421 618 543 l 651 422 l 755 437 l 671 380 l 621 355 l 608 353 l 605 286 q 611 164 600 191 q 627 151 616 151 q 717 244 656 151 l 731 190 q 581 18 633 67 m 493 690 q 353 431 425 551 l 407 420 l 469 418 l 477 418 q 496 589 478 456 l 515 741 q 493 690 499 703 z "},"Á":{"ha":875,"x_min":-229,"x_max":895,"o":"m 669 1115 l 552 1101 l 710 1301 l 895 1323 l 669 1115 m 581 18 q 500 -29 530 -29 q 458 0 475 -29 q 441 68 439 31 l 448 168 l 467 323 l 435 319 l 341 319 l 288 323 q 35 -33 133 76 q -135 -147 -68 -147 q -203 -118 -178 -147 q -229 -45 -229 -89 q -65 274 -229 96 l -10 279 q -121 67 -121 137 q -109 30 -121 42 q -79 17 -99 17 q 35 87 -35 17 q 224 328 102 153 l 186 330 l 99 340 l 218 401 l 300 450 q 401 625 348 530 q 527 897 489 787 q 543 985 543 943 l 631 1016 l 724 1051 q 650 747 675 905 q 616 421 617 544 l 651 422 l 755 437 l 671 380 l 621 355 l 608 353 l 605 286 q 611 164 600 191 q 627 151 616 151 q 717 245 656 151 l 730 190 q 581 18 633 67 m 493 690 q 353 431 425 550 l 407 420 l 469 418 l 477 418 q 496 589 478 456 l 516 741 q 493 690 498 701 z "},"Â":{"ha":875,"x_min":-229,"x_max":875,"o":"m 804 1101 l 707 1261 l 525 1102 l 442 1145 l 670 1358 l 768 1358 l 875 1141 l 804 1101 m 581 18 q 500 -29 530 -29 q 458 1 475 -29 q 441 68 439 32 l 448 168 l 467 323 l 435 320 l 341 320 l 288 323 q 35 -33 133 76 q -135 -147 -68 -147 q -203 -118 -178 -147 q -229 -45 -229 -89 q -65 274 -229 96 l -10 279 q -121 67 -121 137 q -109 30 -121 42 q -79 17 -99 17 q 35 87 -35 17 q 224 328 102 153 l 186 330 l 99 340 l 218 401 l 300 450 q 401 626 348 530 q 527 898 489 787 q 543 985 543 944 l 631 1017 l 724 1051 q 650 748 675 905 q 616 421 617 544 l 651 422 l 755 437 l 671 381 l 621 355 l 608 353 l 605 286 q 611 165 600 191 q 627 151 616 151 q 717 245 656 151 l 730 190 q 581 18 633 67 m 493 690 q 353 431 425 551 l 407 421 l 469 418 l 477 419 q 496 589 478 456 l 516 741 q 493 690 498 701 z "},"Ã":{"ha":875,"x_min":-229,"x_max":908,"o":"m 793 1158 q 738 1156 777 1154 l 713 1162 l 614 1190 q 569 1181 585 1192 q 528 1135 553 1170 l 484 1158 q 623 1293 557 1293 l 637 1292 l 664 1286 l 751 1263 l 777 1258 l 788 1257 q 865 1313 832 1257 l 908 1295 q 840 1187 870 1216 q 793 1158 816 1164 m 581 18 q 500 -29 530 -29 q 458 0 475 -29 q 441 68 439 31 l 448 168 l 467 323 l 435 319 l 341 319 l 288 323 q 35 -33 133 76 q -135 -147 -68 -147 q -203 -118 -178 -147 q -229 -45 -229 -89 q -65 274 -229 96 l -10 279 q -121 67 -121 137 q -109 30 -121 42 q -79 17 -99 17 q 35 87 -35 17 q 224 328 102 153 l 186 330 l 99 340 l 218 401 l 300 450 q 401 625 348 530 q 527 897 489 787 q 543 985 543 943 l 631 1016 l 724 1051 q 650 747 675 905 q 616 421 617 544 l 651 422 l 755 437 l 671 380 l 621 355 l 608 353 l 605 286 q 611 164 600 191 q 627 151 616 151 q 717 245 656 151 l 730 190 q 581 18 633 67 m 493 690 q 352 431 427 555 l 407 420 l 469 418 l 477 418 q 496 589 478 456 l 516 741 q 493 690 498 701 z "},"Ä":{"ha":875,"x_min":-229,"x_max":941,"o":"m 873 1168 q 785 1140 832 1140 q 769 1141 777 1140 q 689 1168 739 1142 l 799 1280 q 833 1270 817 1274 q 893 1256 864 1260 q 941 1255 902 1255 q 873 1168 920 1198 m 638 1169 q 546 1140 596 1140 q 450 1168 505 1140 l 559 1280 q 662 1256 617 1259 q 701 1255 682 1255 q 638 1169 677 1197 m 581 18 q 500 -29 530 -29 q 458 0 475 -29 q 441 67 439 31 l 448 168 l 467 322 l 435 319 l 341 319 l 288 323 q 35 -33 133 76 q -135 -147 -68 -147 q -203 -118 -178 -147 q -229 -45 -229 -89 q -65 274 -229 96 l -10 279 q -121 66 -121 137 q -109 30 -121 42 q -79 17 -99 17 q 35 87 -35 17 q 224 328 102 153 l 186 330 l 99 340 l 218 401 l 300 449 q 401 625 348 529 q 527 897 489 787 q 543 985 543 943 l 631 1016 l 724 1050 q 650 747 675 904 q 616 420 617 544 l 651 422 l 755 437 l 671 380 l 621 355 l 608 352 l 605 286 q 611 164 600 191 q 627 151 616 151 q 717 244 656 151 l 730 189 q 581 18 633 67 m 493 690 q 352 431 427 555 l 407 420 l 469 418 l 477 418 q 496 589 478 456 l 516 741 q 493 690 498 701 z "},"Å":{"ha":875,"x_min":-229,"x_max":817,"o":"m 668 1042 q 563 1086 608 1042 q 519 1191 519 1131 q 562 1295 519 1253 q 668 1337 606 1337 q 774 1295 731 1337 q 817 1191 817 1253 q 773 1086 817 1130 q 668 1042 729 1042 m 581 18 q 500 -29 530 -29 q 458 0 475 -29 q 441 68 439 31 l 448 168 l 467 323 l 435 320 l 341 320 l 288 323 q 35 -33 133 76 q -135 -147 -68 -147 q -203 -118 -178 -147 q -229 -45 -229 -89 q -64 274 -229 95 l -9 279 q -121 67 -121 138 q -109 30 -121 42 q -79 17 -99 17 q 35 87 -35 17 q 224 328 102 153 l 187 330 l 100 340 l 219 401 l 301 450 q 477 776 410 629 q 543 979 543 918 q 724 1042 602 997 q 628 596 656 846 q 616 421 616 498 l 650 422 l 755 437 l 671 380 l 621 355 l 608 353 l 604 286 l 603 230 q 611 165 602 182 q 627 151 616 151 q 659 170 638 151 q 717 245 682 189 l 730 190 q 581 18 633 67 m 668 1262 q 617 1241 640 1262 q 595 1191 595 1219 q 617 1139 595 1162 q 668 1116 640 1116 q 720 1138 699 1116 q 741 1191 741 1160 q 720 1242 741 1222 q 668 1262 699 1262 m 492 690 q 353 431 421 546 l 407 420 l 469 418 l 477 419 q 496 589 478 452 l 515 741 q 492 690 498 703 z "},"Ç":{"ha":758,"x_min":-37,"x_max":829,"o":"m 775 780 q 709 701 754 749 q 433 487 569 551 q 357 453 400 471 l 335 512 q 580 640 487 554 q 671 804 671 726 q 644 869 671 844 q 576 895 617 895 q 403 804 507 895 q 227 585 307 721 q 127 290 127 412 q 174 144 127 197 q 309 91 228 85 l 360 95 q 395 107 381 98 q 553 315 508 216 l 653 332 q 165 -45 389 -45 q 16 18 70 -45 q -37 171 -37 76 q 165 631 -37 377 q 456 909 303 805 q 726 1014 612 1014 q 800 988 774 1014 q 829 920 829 965 q 775 780 829 857 m 201 -64 l 219 -61 q 295 -82 263 -61 q 327 -137 327 -104 q 257 -238 327 -186 q 115 -289 187 -289 q 73 -281 90 -289 q 24 -255 50 -275 l 62 -201 q 102 -226 79 -216 q 146 -231 119 -231 q 192 -220 167 -231 q 224 -188 222 -206 q 172 -151 223 -163 q 123 -149 157 -147 l 104 -157 l 77 -138 l 192 16 l 261 16 l 201 -64 z "},"È":{"ha":743,"x_min":-34,"x_max":796,"o":"m 667 1124 l 468 1341 l 651 1308 l 796 1099 l 667 1124 m 711 806 q 574 689 662 749 l 532 711 q 596 764 577 743 q 611 805 611 787 q 573 861 611 838 q 505 881 540 881 l 488 881 q 465 876 482 881 q 432 863 445 872 q 345 716 345 780 q 412 614 345 659 q 582 570 478 570 l 629 570 l 529 505 l 471 460 l 424 467 l 394 469 q 312 452 348 469 l 296 444 q 186 358 234 414 q 131 233 131 294 q 176 148 131 178 q 273 122 214 122 q 435 162 370 122 l 479 231 l 514 310 l 606 322 q 395 58 514 151 q 163 -38 274 -38 q 23 15 80 -38 q -34 149 -34 68 q 80 363 -34 259 q 293 499 168 444 q 186 629 186 545 q 267 790 186 704 q 407 911 307 833 q 606 1015 538 1015 q 711 982 667 1015 q 756 909 756 949 q 711 806 756 859 z "},"É":{"ha":743,"x_min":-34,"x_max":876,"o":"m 650 1115 l 532 1101 l 690 1301 l 876 1323 l 650 1115 m 711 806 q 574 688 662 749 l 532 710 q 596 764 577 743 q 611 805 611 786 q 573 861 611 838 q 505 881 540 881 l 488 881 q 465 876 482 881 q 432 863 445 872 q 345 715 345 780 q 412 614 345 658 q 582 570 478 570 l 629 570 l 529 505 l 471 460 l 424 467 l 394 469 q 312 452 348 469 l 296 444 q 186 358 234 414 q 131 233 131 294 q 176 148 131 178 q 273 122 214 122 q 435 161 370 122 l 479 231 l 514 310 l 606 322 q 395 58 514 151 q 163 -38 274 -38 q 23 15 80 -38 q -34 149 -34 68 q 80 363 -34 259 q 293 499 168 444 q 186 629 186 545 q 267 790 186 703 q 407 911 307 833 q 606 1015 538 1015 q 711 982 667 1015 q 756 909 756 949 q 711 806 756 859 z "},"Ê":{"ha":743,"x_min":-34,"x_max":855,"o":"m 784 1101 l 688 1261 l 506 1102 l 422 1145 l 650 1358 l 748 1358 l 855 1142 l 784 1101 m 711 806 q 574 689 662 749 l 532 711 q 596 765 577 743 q 611 806 611 787 q 573 861 611 838 q 505 881 540 881 l 488 881 q 465 876 482 881 q 432 863 445 872 q 345 716 345 780 q 412 614 345 659 q 582 570 478 570 l 629 570 l 529 505 l 471 460 l 424 467 l 394 469 q 312 452 348 469 l 296 444 q 186 358 234 414 q 131 233 131 294 q 176 148 131 178 q 273 123 214 123 q 435 162 370 123 l 479 231 l 514 310 l 606 322 q 395 58 514 151 q 163 -38 274 -38 q 23 15 80 -38 q -34 149 -34 68 q 80 364 -34 259 q 293 499 168 444 q 186 630 186 545 q 267 790 186 704 q 407 911 307 834 q 606 1015 538 1015 q 711 982 667 1015 q 756 909 756 949 q 711 806 756 859 z "},"Ë":{"ha":743,"x_min":-34,"x_max":922,"o":"m 854 1168 q 766 1140 813 1140 q 734 1143 755 1140 q 670 1168 708 1147 l 779 1280 q 873 1256 835 1261 q 922 1255 883 1255 q 854 1168 900 1198 m 616 1169 q 595 1154 616 1169 q 526 1140 574 1140 q 511 1141 519 1140 q 431 1168 482 1142 l 538 1280 l 573 1270 q 633 1256 595 1261 q 682 1255 642 1255 q 616 1169 659 1198 m 711 806 q 574 688 662 748 l 532 710 q 596 764 577 742 q 611 805 611 786 q 573 861 611 838 q 505 880 540 880 l 488 880 q 465 876 482 880 q 432 862 445 871 q 345 715 345 779 q 412 614 345 658 q 582 570 478 570 l 629 570 l 529 505 l 471 460 l 424 467 l 394 469 q 312 452 348 469 l 296 444 q 186 358 234 414 q 131 233 131 294 q 176 148 131 178 q 273 122 214 122 q 435 161 370 122 l 479 231 l 514 310 l 606 321 q 395 58 514 151 q 163 -38 274 -38 q 23 15 80 -38 q -34 149 -34 68 q 80 363 -34 259 q 293 498 168 444 q 186 629 186 545 q 267 789 186 703 q 407 911 307 833 q 606 1014 538 1014 q 711 981 667 1014 q 756 908 756 949 q 711 806 756 859 z "},"Ì":{"ha":599,"x_min":-71,"x_max":678,"o":"m 549 1124 l 351 1341 l 533 1308 l 678 1099 l 549 1124 m 584 924 q 544 865 561 897 q 438 570 492 766 q 342 267 377 350 q 176 12 281 126 q -26 -130 71 -103 q -71 -19 -71 -85 q -8 224 -71 83 l 103 305 q 55 191 67 241 q 42 102 42 139 q 73 2 42 28 q 146 129 113 50 q 242 420 182 212 q 298 610 262 490 q 344 742 313 661 q 410 882 380 840 l 394 883 l 363 886 l 319 882 q 300 879 308 880 q 271 870 293 878 q 220 756 257 853 l 189 741 l 126 711 q 267 931 178 854 q 453 1008 359 1010 l 668 1002 q 584 924 603 947 z "},"Í":{"ha":599,"x_min":-71,"x_max":758,"o":"m 531 1115 l 414 1101 l 572 1301 l 758 1323 l 531 1115 m 583 924 q 544 865 562 899 q 443 578 503 785 q 342 267 378 351 q 176 12 281 126 q -26 -130 71 -103 q -71 -19 -71 -85 q -8 224 -71 83 l 103 305 q 55 191 67 241 q 42 102 42 139 q 73 2 42 28 q 146 128 113 50 q 242 420 184 216 q 343 742 303 635 q 410 882 379 839 l 394 883 l 363 886 l 319 882 q 300 878 308 879 q 271 870 293 878 q 220 756 257 853 l 189 741 l 126 711 q 267 930 178 854 q 453 1007 359 1010 l 667 1001 q 583 924 602 946 z "},"Î":{"ha":599,"x_min":-71,"x_max":737,"o":"m 666 1101 l 570 1261 l 388 1102 l 304 1145 l 532 1358 l 630 1358 l 737 1141 l 666 1101 m 583 924 q 544 865 562 900 q 443 578 503 785 q 342 267 378 351 q 176 12 281 126 q -26 -130 71 -103 q -71 -19 -71 -85 q -8 225 -71 83 l 103 305 q 55 191 67 241 q 42 102 42 139 q 73 2 42 28 q 146 129 113 50 q 242 420 184 216 q 343 743 303 635 q 410 883 379 839 l 394 884 l 363 886 l 319 882 q 300 880 308 880 q 271 870 293 878 q 220 756 257 854 l 189 741 l 126 711 q 267 931 178 854 q 453 1008 359 1010 l 667 1002 q 583 924 602 947 z "},"Ï":{"ha":599,"x_min":-71,"x_max":804,"o":"m 736 1168 q 648 1140 694 1140 q 616 1143 637 1140 q 552 1168 590 1147 l 661 1280 q 729 1261 696 1269 q 804 1255 759 1255 q 736 1168 782 1198 m 498 1169 q 477 1154 498 1169 q 408 1140 456 1140 q 393 1141 401 1140 q 313 1168 363 1142 l 421 1281 q 489 1261 457 1267 q 516 1256 499 1259 q 564 1255 525 1255 q 498 1169 541 1198 m 584 924 q 544 865 561 897 q 438 570 492 766 q 342 267 377 349 q 176 12 281 126 q -26 -130 71 -103 q -71 -19 -71 -85 q -8 224 -71 83 l 103 305 q 55 191 67 241 q 42 102 42 139 q 73 2 42 28 q 146 128 113 50 q 242 419 182 212 q 298 610 262 490 q 344 742 313 660 q 410 882 380 840 l 394 882 l 363 885 l 319 882 q 300 879 308 879 q 271 869 293 877 q 220 755 257 852 l 189 740 l 126 711 q 267 930 178 854 q 453 1007 359 1010 l 668 1001 q 584 924 603 947 z "},"Ð":{"ha":1003,"x_min":-80,"x_max":988,"o":"m 535 892 l 502 892 q 323 866 421 895 q 218 811 243 842 q 167 724 195 783 l 54 480 l 44 563 l 41 608 q 52 705 39 650 q 90 771 63 741 q 599 1015 310 1015 q 882 897 772 1015 q 988 607 988 782 q 882 290 988 442 q 635 54 791 158 q 411 -28 512 -28 q 224 7 368 -28 l 110 37 q -30 -62 34 -28 q -60 -71 -49 -71 l -75 -66 l -80 -53 q -2 130 -80 -14 q 61 196 33 196 q 141 182 83 196 q 243 421 165 244 l 104 421 l 140 492 l 273 492 q 335 633 284 517 q 405 794 359 687 l 487 853 l 535 892 m 589 882 q 491 703 547 811 l 383 492 l 587 492 l 552 422 l 348 421 l 214 163 q 517 109 404 109 q 568 112 553 109 q 673 151 623 115 q 788 313 734 193 q 842 546 842 432 q 774 757 842 669 q 589 882 708 843 z "},"Ñ":{"ha":1003,"x_min":-198,"x_max":994,"o":"m 849 1158 q 793 1156 833 1154 l 768 1161 l 669 1190 q 625 1181 640 1192 q 584 1135 609 1170 l 539 1158 q 679 1293 612 1293 l 694 1292 l 720 1286 l 806 1263 l 832 1258 l 844 1257 q 921 1313 888 1257 l 964 1295 q 896 1187 926 1216 q 849 1158 871 1164 m 883 498 q 581 -77 769 222 l 555 -81 q 389 717 493 393 q 98 65 282 375 q -134 -191 -55 -191 q -182 -156 -163 -191 q -198 -96 -198 -127 q -30 241 -198 53 l 54 266 q -8 203 -1 210 q -57 133 -35 173 q -86 39 -86 81 q -68 15 -86 18 q 100 202 -6 16 q 274 558 205 387 q 342 786 342 728 q 328 841 342 822 q 282 858 311 858 q 132 775 226 858 l 122 828 q 431 1020 294 974 q 564 686 500 910 q 671 180 621 481 q 883 749 883 574 q 817 851 883 851 q 707 764 766 851 l 681 807 q 817 959 744 896 q 926 1015 882 1015 q 994 908 994 1015 q 883 498 994 764 z "},"Ò":{"ha":932,"x_min":-16,"x_max":949,"o":"m 715 1124 l 517 1341 l 699 1308 l 845 1099 l 715 1124 m 872 425 q 543 70 767 227 q 256 -46 376 -46 q 55 36 128 -46 q -16 242 -16 115 q 104 614 -16 430 q 435 933 223 798 l 484 924 q 239 651 321 803 q 157 345 157 499 q 221 166 157 235 q 397 95 287 95 q 724 387 601 95 q 777 621 777 511 q 741 777 777 713 q 611 853 697 853 q 375 682 491 853 l 313 680 l 454 854 q 558 993 492 898 q 685 1019 609 1019 q 879 929 804 1019 q 949 724 949 845 q 872 425 949 570 z "},"Ó":{"ha":932,"x_min":-16,"x_max":949,"o":"m 698 1115 l 581 1101 l 739 1301 l 925 1323 l 698 1115 m 872 425 q 543 70 767 227 q 256 -46 376 -46 q 55 36 128 -46 q -16 242 -16 115 q 104 613 -16 430 q 435 932 223 797 l 484 924 q 239 651 321 803 q 157 345 157 498 q 221 166 157 235 q 397 95 287 95 q 724 387 601 95 q 777 620 777 511 q 741 776 777 713 q 611 853 697 853 q 375 682 491 853 l 313 680 l 454 854 q 558 992 492 898 q 685 1019 609 1019 q 879 929 804 1019 q 949 724 949 845 q 872 425 949 570 z "},"Ô":{"ha":932,"x_min":-16,"x_max":949,"o":"m 833 1101 l 736 1261 l 554 1102 l 471 1145 l 699 1358 l 797 1358 l 905 1142 l 833 1101 m 872 425 q 543 70 767 227 q 256 -46 376 -46 q 55 36 128 -46 q -16 242 -16 115 q 104 614 -16 430 q 435 933 223 798 l 484 924 q 239 651 321 803 q 157 345 157 499 q 221 166 157 235 q 397 95 287 95 q 724 387 601 95 q 777 621 777 511 q 741 777 777 713 q 611 854 697 854 q 375 683 491 854 l 313 680 l 454 854 q 558 993 492 899 q 685 1019 609 1019 q 879 929 804 1019 q 949 724 949 845 q 872 425 949 570 z "},"Õ":{"ha":932,"x_min":-16,"x_max":949,"o":"m 823 1158 q 767 1156 806 1154 l 742 1162 l 643 1190 q 598 1181 614 1192 q 557 1135 583 1171 l 513 1158 q 652 1293 586 1293 l 667 1292 l 693 1286 l 780 1263 l 806 1258 l 817 1257 q 895 1313 861 1257 l 939 1295 q 823 1158 878 1173 m 872 425 q 543 70 767 227 q 256 -46 376 -46 q 55 36 128 -46 q -16 242 -16 115 q 104 613 -16 430 q 435 932 223 797 l 484 924 q 239 651 321 803 q 157 345 157 498 q 221 166 157 235 q 397 95 287 95 q 724 387 601 95 q 777 620 777 511 q 741 776 777 713 q 611 853 697 853 q 375 682 491 853 l 313 680 l 454 853 q 558 992 492 898 q 685 1018 609 1018 q 879 929 804 1018 q 949 724 949 844 q 872 425 949 570 z "},"Ö":{"ha":932,"x_min":-16,"x_max":970,"o":"m 903 1168 q 814 1140 861 1140 q 798 1141 806 1140 q 718 1168 768 1142 l 828 1280 q 863 1270 846 1274 q 922 1256 893 1260 q 970 1255 931 1255 q 903 1168 949 1198 m 667 1169 q 575 1140 625 1140 q 479 1168 534 1140 l 588 1280 q 691 1256 646 1259 q 730 1255 711 1255 q 667 1169 707 1198 m 872 425 q 543 70 767 227 q 256 -46 376 -46 q 55 36 128 -46 q -16 241 -16 115 q 104 613 -16 430 q 435 932 223 797 l 484 924 q 239 650 321 802 q 157 345 157 498 q 222 165 157 235 q 397 95 287 95 q 724 387 601 95 q 777 620 777 511 q 741 776 777 713 q 611 853 697 853 q 375 682 491 853 l 313 680 l 454 853 q 558 992 492 897 q 685 1018 609 1018 q 879 928 804 1018 q 949 724 949 844 q 872 425 949 570 z "},"×":{"ha":1157,"x_min":184,"x_max":983,"o":"m 901 26 l 583 335 l 265 26 l 184 104 l 503 414 l 184 724 l 265 803 l 583 493 l 901 803 l 983 724 l 665 414 l 983 104 l 901 26 z "},"Ù":{"ha":971,"x_min":1,"x_max":938,"o":"m 680 1124 l 481 1341 l 663 1308 l 808 1099 l 680 1124 m 513 372 q 267 87 395 203 q 47 -43 123 -43 q 1 8 1 -43 q 135 394 1 33 q 205 602 165 473 q 259 805 259 770 q 232 842 259 842 q 213 837 223 842 q 147 800 191 825 l 134 846 l 347 987 q 416 1020 390 1015 q 455 1001 439 1020 q 465 955 465 983 q 361 630 465 907 l 330 549 l 286 434 q 201 184 201 218 q 208 161 201 170 q 222 155 212 155 q 333 234 252 155 q 500 438 414 313 q 620 650 563 528 q 746 959 675 766 l 827 989 q 892 1014 846 997 q 924 1025 901 1017 l 935 1018 l 938 1009 q 833 766 938 998 q 680 391 720 517 q 646 201 646 283 q 658 142 646 159 q 683 127 665 130 q 783 203 715 128 l 801 159 q 530 -43 619 -43 q 465 71 465 -43 q 513 372 465 204 z "},"Ú":{"ha":971,"x_min":1,"x_max":938,"o":"m 662 1115 l 545 1101 l 703 1301 l 888 1323 l 662 1115 m 513 372 q 267 87 395 203 q 47 -43 123 -43 q 1 8 1 -43 q 135 394 1 33 q 205 602 165 473 q 259 804 259 770 q 232 842 259 842 q 213 837 223 842 q 147 800 191 825 l 134 846 l 347 987 q 416 1020 390 1015 q 455 1000 439 1020 q 465 955 465 982 q 361 630 465 907 l 330 549 l 286 434 q 201 184 201 218 q 208 161 201 170 q 222 155 212 155 q 333 234 252 155 q 500 438 414 313 q 620 650 563 528 q 746 959 675 766 l 827 989 q 892 1014 846 997 q 924 1025 901 1017 l 935 1017 l 938 1008 q 833 766 938 997 q 680 391 720 517 q 646 201 646 283 q 658 142 646 159 q 683 127 665 130 q 783 203 715 128 l 801 159 q 530 -43 619 -43 q 465 71 465 -43 q 513 372 465 204 z "},"Û":{"ha":971,"x_min":1,"x_max":938,"o":"m 797 1101 l 701 1261 l 518 1102 l 435 1145 l 663 1358 l 760 1358 l 868 1142 l 797 1101 m 513 373 q 267 87 395 203 q 47 -43 123 -43 q 1 8 1 -43 q 135 394 1 33 q 205 602 165 473 q 259 805 259 770 q 232 842 259 842 q 213 838 223 842 q 147 801 191 826 l 134 846 l 347 987 q 416 1020 390 1016 q 455 1001 439 1020 q 465 956 465 983 q 361 630 465 907 l 330 549 l 286 434 q 201 184 201 218 q 208 161 201 170 q 222 155 212 155 q 333 234 252 155 q 500 438 414 313 q 620 650 563 528 q 746 959 675 766 l 827 989 q 892 1014 846 997 q 924 1025 901 1017 l 935 1018 l 938 1009 q 833 767 938 998 q 680 391 720 517 q 646 201 646 283 q 658 142 646 159 q 683 127 665 130 q 783 203 715 128 l 801 159 q 530 -43 619 -43 q 465 71 465 -43 q 513 373 465 205 z "},"Ü":{"ha":971,"x_min":1,"x_max":938,"o":"m 870 1169 q 778 1140 827 1140 q 682 1168 737 1140 l 792 1281 q 818 1272 801 1278 q 895 1256 859 1259 q 935 1255 914 1255 q 870 1169 911 1197 m 631 1169 q 539 1140 589 1140 q 443 1168 498 1140 l 551 1281 q 578 1272 560 1278 q 655 1256 621 1259 q 694 1255 675 1255 q 631 1169 671 1198 m 513 372 q 267 87 395 203 q 47 -43 123 -43 q 1 8 1 -43 q 135 393 1 33 q 205 602 165 473 q 259 804 259 769 q 232 841 259 841 q 213 837 223 841 q 147 800 191 825 l 134 845 l 347 986 q 416 1019 390 1015 q 455 1000 439 1019 q 465 954 465 982 q 361 630 465 906 l 330 549 l 286 434 q 201 184 201 218 q 208 161 201 170 q 222 155 212 155 q 333 234 252 155 q 500 438 414 313 q 620 650 563 528 q 746 958 675 766 l 827 989 q 892 1013 846 996 q 924 1025 901 1016 l 935 1017 l 938 1008 q 833 766 938 997 q 680 391 720 517 q 646 201 646 283 q 658 142 646 159 q 683 127 665 130 q 783 203 715 128 l 801 158 q 530 -43 619 -43 q 465 71 465 -43 q 513 372 465 204 z "},"Ý":{"ha":868,"x_min":67,"x_max":1002,"o":"m 667 1115 l 550 1101 l 707 1301 l 893 1323 l 667 1115 m 947 965 q 861 815 922 929 q 611 294 741 593 q 467 -22 500 40 q 361 -153 433 -87 q 302 -203 344 -168 q 157 -296 199 -289 q 123 -271 137 -296 q 114 -217 114 -250 q 186 -26 114 -140 q 110 92 104 5 l 114 148 l 128 222 l 132 238 q 218 764 218 578 q 167 844 218 844 q 75 812 131 844 l 67 856 q 338 1026 308 1026 q 385 922 385 1026 q 328 562 385 795 q 272 235 272 330 q 311 162 272 162 q 488 374 366 162 q 748 941 612 590 l 850 977 l 1002 1036 q 947 965 958 983 m 472 278 l 484 283 q 339 77 412 164 q 225 -30 267 -8 q 208 -109 216 -54 q 210 -134 208 -125 q 213 -153 213 -146 q 224 -182 218 -169 q 470 290 342 -102 l 476 277 l 472 278 z "},"Þ":{"ha":824,"x_min":-37,"x_max":791,"o":"m 334 553 q 496 711 409 640 q 688 812 618 812 q 791 680 791 812 q 732 485 791 587 q 590 318 682 395 q 401 203 499 241 q 227 169 311 169 l 206 169 l 191 170 q 183 146 189 161 q 160 55 160 82 q 163 44 160 47 q 174 39 165 41 q 285 97 206 39 l 283 41 l 98 -69 q 13 -100 45 -100 q -37 -52 -37 -100 q 60 207 -37 9 l 37 224 l 0 257 q 54 290 18 267 l 98 320 q 255 801 255 716 q 250 820 255 812 q 234 825 246 823 q 135 772 199 824 l 140 835 l 353 972 q 420 1006 404 1006 q 456 959 456 1006 q 424 804 456 913 q 334 553 401 728 m 578 684 q 401 565 507 684 q 227 263 296 445 l 262 254 l 308 250 q 479 321 406 250 q 599 509 552 393 q 625 614 625 572 q 578 684 625 684 z "},"à":{"ha":541,"x_min":-121,"x_max":532,"o":"m 404 787 l 205 1004 l 387 970 l 532 763 l 404 787 m 203 187 q -68 -39 23 -39 q -121 47 -121 -39 q -24 356 -121 174 q 16 427 -1 401 q 271 654 124 586 q 359 684 334 684 q 404 664 376 684 q 435 627 423 646 q 467 644 446 633 l 494 662 l 509 659 l 515 645 q 484 570 514 641 l 431 450 q 328 123 328 214 q 331 108 328 113 q 338 102 334 102 q 359 111 347 102 l 407 160 l 416 106 q 207 -36 283 -36 q 171 -20 186 -36 q 161 23 161 -5 q 199 179 161 79 l 203 187 m 346 543 l 360 541 l 319 513 q 253 588 294 588 q 183 520 230 588 q 96 347 136 449 q 52 159 52 233 q 58 125 52 136 q 67 117 61 117 q 138 173 89 117 q 237 313 188 228 l 284 414 q 349 549 308 466 l 349 538 l 346 543 z "},"á":{"ha":541,"x_min":-121,"x_max":612,"o":"m 385 779 l 269 764 l 427 964 l 612 985 l 385 779 m 201 186 q -68 -39 22 -39 q -121 46 -121 -39 q -24 355 -121 174 q 16 427 -1 401 q 271 654 124 586 q 359 684 334 684 q 404 664 376 684 q 435 627 423 646 q 467 644 446 633 l 494 661 l 509 659 l 515 645 q 505 618 512 635 q 484 570 500 606 q 355 253 437 466 q 327 123 327 166 q 330 108 327 113 q 338 102 334 102 q 359 111 347 102 l 408 161 l 415 106 q 207 -36 283 -36 q 171 -20 186 -36 q 161 23 161 -5 q 199 179 161 84 l 201 186 m 346 542 l 360 541 l 319 513 q 253 588 294 588 q 183 519 230 588 q 96 347 136 449 q 52 159 52 233 q 58 125 52 136 q 67 117 61 117 q 138 173 89 117 q 237 313 188 228 l 283 414 q 349 549 308 466 l 349 538 l 346 542 z "},"â":{"ha":541,"x_min":-121,"x_max":591,"o":"m 520 764 l 424 924 l 242 766 l 159 808 l 387 1021 l 484 1021 l 591 805 l 520 764 m 201 186 q -68 -39 22 -39 q -121 47 -121 -39 q -24 356 -121 174 q 16 427 -1 401 q 271 655 124 586 q 359 685 334 685 q 404 665 376 685 q 435 627 423 647 q 467 645 446 633 l 494 662 l 509 659 l 515 646 q 505 618 512 635 q 484 571 500 607 q 355 253 437 467 q 327 123 327 166 q 330 108 327 113 q 338 102 334 102 q 359 111 347 102 l 408 161 l 415 106 q 207 -36 283 -36 q 171 -20 186 -36 q 161 23 161 -5 q 199 179 161 84 l 201 186 m 346 543 l 360 541 l 319 513 q 253 588 294 588 q 183 520 230 588 q 96 347 136 449 q 52 159 52 233 q 58 125 52 136 q 67 118 61 118 q 138 173 89 118 q 237 313 188 229 l 283 414 q 349 549 308 466 l 349 538 l 346 543 z "},"ã":{"ha":541,"x_min":-121,"x_max":625,"o":"m 510 821 q 454 819 494 817 l 429 825 l 353 846 l 330 852 l 315 854 q 245 799 285 854 l 201 821 q 340 956 270 956 l 354 954 l 379 949 l 467 926 l 493 920 l 505 920 q 583 975 548 920 l 625 959 q 560 853 589 883 q 510 821 536 828 m 201 186 q -68 -39 22 -39 q -121 46 -121 -39 q -24 355 -121 174 q 16 426 -1 400 q 271 654 124 585 q 359 684 334 684 q 404 664 376 684 q 435 627 423 646 q 467 644 446 633 l 494 661 l 509 658 l 515 645 q 505 618 512 635 q 484 570 500 606 q 355 253 437 466 q 327 123 327 165 q 330 108 327 113 q 338 102 334 102 q 359 111 347 102 l 408 161 l 415 106 q 207 -36 283 -36 q 171 -20 186 -36 q 161 23 161 -5 q 199 179 161 84 l 201 186 m 346 542 l 360 541 l 319 513 q 253 587 294 587 q 183 519 230 587 q 96 347 136 448 q 52 159 52 233 q 58 125 52 136 q 67 117 61 117 q 138 173 89 117 q 237 312 188 228 l 283 414 q 349 549 308 466 l 349 538 l 346 542 z "},"ä":{"ha":541,"x_min":-121,"x_max":658,"o":"m 590 831 q 502 804 548 804 q 485 805 500 804 q 406 831 448 809 l 516 944 q 610 919 555 926 q 658 918 619 918 q 590 831 636 861 m 352 832 q 331 818 352 832 q 262 804 309 804 q 247 805 254 804 q 222 809 239 806 q 168 831 201 814 l 276 944 q 345 924 296 935 q 418 918 375 918 q 352 832 395 861 m 201 185 q -68 -39 22 -39 q -121 46 -121 -39 q -24 355 -121 174 q 16 426 -1 400 q 271 654 124 585 q 359 684 334 684 q 404 663 376 684 q 435 626 423 646 q 467 644 446 633 l 494 661 l 509 658 l 515 644 q 505 618 512 635 q 484 570 500 606 q 355 252 437 466 q 327 123 327 165 q 330 108 327 113 q 338 102 334 102 q 359 111 347 102 l 408 161 l 415 106 q 207 -36 283 -36 q 171 -20 186 -36 q 161 23 161 -5 q 199 179 161 84 l 201 185 m 346 542 l 360 540 l 319 512 q 253 587 294 587 q 183 519 230 587 q 96 347 136 448 q 52 159 52 233 q 58 125 52 136 q 67 117 61 117 q 138 173 89 117 q 237 312 188 228 l 283 413 q 349 549 308 465 l 349 538 l 346 542 z "},"å":{"ha":541,"x_min":-121,"x_max":592,"o":"m 414 709 q 287 759 338 709 q 236 884 236 809 q 287 1008 236 958 q 414 1059 338 1059 q 540 1007 488 1059 q 592 884 592 956 q 541 759 592 809 q 414 709 489 709 m 201 186 q -68 -39 22 -39 q -121 47 -121 -39 q -24 356 -121 174 q 16 427 -1 401 q 271 656 124 587 q 359 685 334 685 q 404 665 376 685 q 435 627 423 648 q 467 646 446 634 l 494 663 l 509 659 l 515 646 q 505 619 512 636 q 484 571 500 608 q 355 253 437 467 q 327 124 327 166 q 330 108 327 113 q 338 102 334 102 q 359 111 347 102 l 408 161 l 415 106 q 207 -36 283 -36 q 171 -20 186 -36 q 161 23 161 -5 q 199 179 161 84 l 201 186 m 416 973 q 350 945 376 973 q 323 884 323 923 q 351 821 323 847 q 416 794 378 794 q 479 820 450 794 q 505 884 505 848 q 479 947 505 922 q 416 973 454 973 m 346 543 l 360 541 l 319 513 q 253 589 294 589 q 183 520 230 589 q 96 347 136 450 q 52 160 52 233 q 58 125 52 136 q 67 118 61 118 q 138 173 88 118 q 237 313 190 231 l 284 414 q 349 550 308 467 l 349 539 l 346 543 z "},"ç":{"ha":418,"x_min":-95,"x_max":426,"o":"m 411 578 q 366 467 396 531 l 335 453 q 283 432 317 446 q 212 396 263 422 q 272 548 272 500 q 267 572 272 565 q 254 578 262 578 q 229 566 241 578 q 192 528 215 557 q 105 359 143 465 q 67 176 67 252 q 127 83 67 83 l 134 83 q 205 186 176 112 l 296 205 q 143 26 229 93 q 1 -40 58 -40 q -73 9 -47 -40 q -92 100 -92 48 q 140 564 -92 341 q 271 648 191 613 q 395 682 351 682 q 419 669 408 682 l 426 645 q 411 578 426 624 m 83 -65 l 101 -62 q 177 -84 145 -62 q 209 -138 209 -105 q 139 -238 209 -187 q -3 -289 68 -289 q -45 -281 -28 -289 q -95 -255 -68 -275 l -56 -202 q -16 -227 -39 -216 q 28 -231 1 -231 q 74 -220 49 -231 q 106 -189 104 -207 q 54 -151 105 -164 q 5 -150 39 -148 l -14 -157 l -41 -138 l 74 14 l 142 14 l 83 -65 z "},"è":{"ha":418,"x_min":-92,"x_max":471,"o":"m 342 787 l 143 1004 l 326 970 l 471 763 l 342 787 m 408 541 q 263 411 363 471 q 199 374 242 398 q 92 344 139 347 q 63 193 63 275 q 139 81 63 81 l 149 81 l 153 83 q 210 178 178 107 q 223 227 214 189 l 306 233 q 172 35 262 115 q 18 -49 81 -49 q -62 -7 -31 -49 q -92 98 -92 33 q 1 399 -92 246 q 224 627 91 548 q 371 675 306 675 q 418 661 399 675 q 435 618 435 644 q 408 541 435 584 m 258 562 q 241 571 254 569 l 225 568 l 224 567 q 126 433 155 506 l 141 429 l 172 427 l 183 427 l 201 429 q 268 535 268 481 q 258 562 268 551 z "},"é":{"ha":418,"x_min":-92,"x_max":551,"o":"m 324 779 l 208 764 l 366 964 l 551 985 l 324 779 m 408 541 q 262 411 363 471 q 199 374 241 398 q 92 344 139 346 q 63 193 63 275 q 139 81 63 81 l 149 81 l 153 83 q 210 178 178 107 q 222 227 214 189 l 305 233 q 172 35 262 115 q 18 -49 81 -49 q -62 -7 -31 -49 q -92 98 -92 33 q 1 399 -92 246 q 224 627 91 548 q 371 675 306 675 q 418 661 399 675 q 435 618 435 644 q 408 541 435 584 m 258 562 q 241 571 254 569 l 225 568 l 224 567 q 126 433 155 506 l 141 429 l 172 427 l 183 427 l 201 429 q 268 535 268 481 q 258 562 268 551 z "},"ê":{"ha":418,"x_min":-92,"x_max":530,"o":"m 459 764 l 363 924 l 180 766 l 98 808 l 326 1021 l 423 1021 l 530 805 l 459 764 m 408 541 q 262 411 363 471 q 199 375 241 398 q 92 344 139 347 q 63 193 63 275 q 139 81 63 81 l 149 81 l 153 83 q 210 178 178 107 q 222 227 214 189 l 305 233 q 172 35 262 115 q 18 -49 81 -49 q -62 -7 -31 -49 q -92 98 -92 33 q 1 399 -92 247 q 224 627 91 549 q 371 676 306 676 q 418 661 399 676 q 435 618 435 644 q 408 541 435 585 m 258 562 q 241 571 254 569 l 225 568 l 224 567 q 126 433 155 507 l 141 429 l 172 427 l 183 427 l 201 429 q 268 536 268 481 q 258 562 268 551 z "},"ë":{"ha":418,"x_min":-92,"x_max":597,"o":"m 529 831 q 440 804 487 804 q 424 805 432 804 q 399 809 416 806 q 345 831 379 813 l 455 944 q 549 919 494 926 q 597 918 557 918 q 529 831 575 861 m 294 833 q 201 804 252 804 q 185 804 193 804 q 160 809 178 805 q 105 831 142 812 l 215 944 q 317 919 259 923 q 357 918 336 918 q 294 833 334 861 m 408 540 q 262 410 363 471 q 199 374 241 397 q 92 343 139 346 q 63 193 63 275 q 139 81 63 81 l 149 81 l 153 83 q 210 178 178 107 q 222 227 214 189 l 305 233 q 172 34 262 115 q 18 -49 81 -49 q -62 -7 -31 -49 q -92 98 -92 33 q 1 399 -92 246 q 224 626 91 547 q 371 675 306 675 q 418 661 399 675 q 435 618 435 643 q 408 540 435 583 m 258 561 q 241 570 254 568 l 225 567 l 224 566 q 126 433 155 506 l 141 429 l 172 427 l 183 427 l 201 429 q 268 534 268 480 q 258 561 268 551 z "},"ì":{"ha":309,"x_min":-103,"x_max":416,"o":"m 287 787 l 87 1004 l 270 970 l 416 763 l 287 787 m 238 543 q 134 303 201 465 q 101 222 117 262 q 68 106 69 136 l 72 92 q 77 89 75 89 q 105 110 84 89 q 127 139 119 129 q 186 253 139 157 l 149 75 q 17 -19 106 42 q -53 -47 -30 -47 q -89 -26 -75 -47 q -103 19 -103 -9 q -19 259 -103 60 q 113 602 64 458 l 220 654 l 275 684 l 290 680 l 295 667 l 238 543 z "},"í":{"ha":309,"x_min":-103,"x_max":495,"o":"m 269 779 l 152 764 l 310 964 l 495 985 l 269 779 m 237 543 q 134 303 166 391 q 101 222 117 262 q 68 106 69 136 l 72 92 q 77 89 75 89 q 105 110 84 89 q 126 139 121 131 q 186 248 138 156 l 149 75 q -53 -47 -15 -47 q -89 -26 -75 -47 q -103 19 -103 -9 q -19 258 -103 60 q 113 602 64 457 l 220 654 l 275 684 l 290 680 l 294 666 l 237 543 z "},"î":{"ha":309,"x_min":-103,"x_max":475,"o":"m 404 764 l 307 923 l 125 766 l 42 808 l 270 1021 l 368 1021 l 475 805 l 404 764 m 237 543 q 134 303 166 391 q 101 222 117 262 q 68 106 69 136 l 72 92 q 77 89 75 90 q 105 110 84 89 q 126 139 121 131 q 186 248 138 156 l 149 75 q -53 -47 -15 -47 q -89 -26 -75 -47 q -103 19 -103 -9 q -19 259 -103 60 q 113 602 64 458 l 220 655 l 275 684 l 290 680 l 294 667 l 237 543 z "},"ï":{"ha":309,"x_min":-103,"x_max":541,"o":"m 473 831 q 385 804 431 804 q 368 805 383 804 q 290 831 330 809 l 399 944 q 493 919 439 926 q 541 918 503 918 q 473 831 519 861 m 236 832 q 214 818 236 832 q 146 804 193 804 q 130 805 138 804 q 105 809 117 806 q 51 831 87 812 l 159 944 q 229 924 179 935 q 301 918 258 918 q 236 832 279 861 m 237 543 q 134 302 166 390 q 101 222 117 262 q 68 106 69 136 l 72 92 q 77 89 75 89 q 105 110 84 89 q 126 139 121 130 q 186 248 138 156 l 149 75 q -53 -47 -15 -47 q -89 -26 -75 -47 q -103 19 -103 -9 q -19 258 -103 60 q 113 602 64 457 l 220 654 l 275 683 l 290 679 l 294 665 l 237 543 z "},"ð":{"ha":502,"x_min":-92,"x_max":592,"o":"m 446 824 q 467 727 463 764 q 474 621 474 674 q 332 194 474 375 q 162 24 250 90 q 21 -45 69 -45 q -62 -2 -30 -45 q -92 105 -92 37 q 5 391 -92 238 q 275 676 102 545 l 328 668 q 131 431 198 555 q 64 203 64 307 q 145 98 64 99 l 171 102 l 195 112 q 293 325 255 198 q 332 572 332 452 q 300 758 332 659 l 151 687 l 151 749 l 275 812 q 245 867 264 830 q 226 891 235 879 l 286 950 l 347 996 q 425 880 384 960 l 592 960 l 592 897 l 446 824 z "},"ñ":{"ha":636,"x_min":-121,"x_max":672,"o":"m 558 821 q 502 819 541 817 l 477 825 l 400 846 l 377 852 l 362 854 q 332 844 346 854 q 292 799 321 837 l 247 821 q 387 956 321 956 l 403 954 l 428 949 l 515 926 l 541 920 l 552 920 q 629 975 596 920 l 672 959 q 607 851 635 880 q 558 821 583 827 m 119 246 q 322 513 193 365 q 426 625 374 573 l 549 680 q 593 693 577 693 q 611 684 606 690 q 616 664 616 677 q 597 602 616 646 q 532 467 578 566 q 475 343 512 426 q 409 143 409 192 q 430 109 409 110 q 455 116 450 113 q 475 133 460 118 l 475 81 q 264 -29 281 -29 q 229 -12 246 -29 q 218 28 218 7 q 351 358 218 87 q 399 477 399 456 q 398 484 399 480 l 390 486 q 249 353 349 484 q 39 1 142 216 q -45 -15 -39 -13 q -121 -43 -74 -22 q -25 212 -97 31 q 102 644 102 533 q 233 687 146 657 q 258 693 250 693 l 271 688 q 279 667 276 683 q 212 473 279 631 q 119 246 156 340 z "},"ò":{"ha":502,"x_min":-92,"x_max":513,"o":"m 384 787 l 185 1004 l 368 970 l 513 763 l 384 787 m 429 365 q 138 11 340 158 q 21 -45 62 -45 q -66 5 -36 -45 q -92 109 -92 48 q 6 408 -92 248 q 275 698 105 567 l 327 690 q 131 445 197 572 q 64 210 64 317 q 82 137 64 166 q 145 101 104 101 l 171 104 l 195 115 q 283 299 247 198 q 323 498 323 413 q 313 545 323 531 q 292 559 307 559 q 258 546 284 559 l 239 569 l 410 710 q 477 581 477 710 q 429 365 477 475 z "},"ó":{"ha":502,"x_min":-92,"x_max":593,"o":"m 366 779 l 250 764 l 408 964 l 593 985 l 366 779 m 429 365 q 138 11 340 158 q 21 -45 62 -45 q -66 5 -36 -45 q -92 109 -92 47 q 6 407 -92 248 q 275 698 105 566 l 327 690 q 131 444 197 572 q 64 210 64 316 q 82 137 64 166 q 145 101 104 101 l 171 104 l 195 115 q 283 299 247 197 q 323 498 323 413 q 313 545 323 530 q 292 559 307 559 q 258 546 284 559 l 239 569 l 410 710 q 477 581 477 710 q 429 365 477 475 z "},"ô":{"ha":502,"x_min":-92,"x_max":572,"o":"m 501 764 l 404 924 l 222 766 l 140 808 l 367 1021 l 465 1021 l 572 805 l 501 764 m 429 366 q 138 11 340 158 q 21 -45 62 -45 q -67 6 -36 -45 q -92 109 -92 48 q 6 408 -92 248 q 275 699 105 567 l 327 690 q 131 445 197 572 q 64 210 64 317 q 82 137 64 166 q 145 101 104 101 l 171 104 l 195 115 q 283 300 247 198 q 323 498 323 413 q 313 545 323 531 q 292 559 307 559 q 258 547 284 559 l 239 569 l 410 711 q 477 581 477 711 q 429 366 477 476 z "},"õ":{"ha":502,"x_min":-92,"x_max":606,"o":"m 492 821 q 435 819 475 817 l 410 825 l 334 846 l 311 852 l 295 854 q 226 799 265 854 l 180 821 q 320 956 257 961 l 336 954 l 361 949 l 448 926 l 474 920 l 486 920 q 563 975 529 920 l 606 959 q 492 821 552 836 m 429 365 q 138 11 340 158 q 21 -45 62 -45 q -66 5 -36 -45 q -92 109 -92 47 q 6 407 -92 248 q 275 698 105 566 l 327 690 q 131 445 197 572 q 64 210 64 316 q 82 137 64 166 q 145 101 104 101 l 171 104 l 195 115 q 283 299 247 197 q 323 498 323 413 q 313 545 323 530 q 292 559 307 559 q 258 546 284 559 l 239 569 l 410 710 q 477 581 477 710 q 429 365 477 475 z "},"ö":{"ha":502,"x_min":-92,"x_max":639,"o":"m 574 833 q 482 804 530 804 q 386 831 440 804 l 496 944 q 600 919 551 920 q 639 918 605 918 q 574 833 615 860 m 336 833 q 243 804 293 804 q 147 831 201 804 l 256 944 q 399 918 318 918 q 336 833 375 860 m 429 365 q 138 11 340 157 q 21 -45 62 -45 q -66 5 -36 -45 q -92 109 -92 47 q 6 407 -92 248 q 275 697 105 566 l 327 690 q 131 444 197 572 q 64 209 64 316 q 82 136 64 166 q 145 101 104 101 l 171 104 l 195 115 q 283 299 247 197 q 323 498 323 412 q 313 545 323 530 q 292 559 307 559 q 258 545 284 559 l 239 568 l 410 709 q 477 581 477 709 q 429 365 477 475 z "},"÷":{"ha":1157,"x_min":162,"x_max":995,"o":"m 579 564 q 512 591 540 564 q 484 656 484 618 q 512 723 484 695 q 579 750 540 750 q 646 722 618 750 q 674 656 674 694 q 646 591 674 618 q 579 564 618 564 m 162 358 l 162 470 l 995 470 l 995 358 l 162 358 m 579 79 q 512 106 540 79 q 484 172 484 134 q 512 237 484 210 q 579 264 540 264 q 646 237 618 264 q 674 172 674 210 q 646 106 674 133 q 579 79 618 79 z "},"ù":{"ha":611,"x_min":-90,"x_max":594,"o":"m 401 787 l 203 1004 l 385 970 l 531 763 l 401 787 m 269 232 q -35 -43 59 -43 q -75 -28 -60 -43 q -90 10 -90 -18 q -87 35 -90 26 q -64 113 -83 62 q -21 218 -50 148 q 81 517 81 468 q 62 534 81 534 l 41 532 l 33 562 q 228 680 176 680 q 258 668 246 680 q 267 637 267 656 q 183 391 267 599 q 95 155 96 178 l 98 142 q 103 142 100 142 q 257 288 148 142 q 452 646 369 437 l 519 659 l 581 674 l 594 661 q 377 121 377 180 q 406 90 377 90 q 425 92 418 90 l 467 102 l 467 64 q 261 -47 312 -47 q 224 -30 240 -47 q 210 12 214 -15 q 269 232 210 89 z "},"ú":{"ha":611,"x_min":-90,"x_max":610,"o":"m 384 779 l 267 764 l 425 964 l 610 985 l 384 779 m 269 231 q -35 -43 59 -43 q -75 -28 -60 -43 q -90 10 -90 -18 q -87 35 -90 26 q -64 113 -83 62 q -21 218 -50 148 q 81 517 81 468 q 62 534 81 534 l 41 532 l 33 562 q 228 680 176 680 q 258 668 246 680 q 267 637 267 655 q 183 391 267 598 q 95 155 96 178 l 98 142 q 103 142 100 142 q 257 288 148 142 q 452 646 369 437 l 519 659 l 581 674 l 594 661 q 377 121 377 180 q 406 90 377 90 q 425 92 418 90 l 467 102 l 467 64 q 261 -47 312 -47 q 224 -30 240 -47 q 210 12 214 -15 q 269 231 210 89 z "},"û":{"ha":611,"x_min":-90,"x_max":594,"o":"m 519 764 l 422 923 l 241 766 l 157 808 l 385 1021 l 483 1021 l 590 805 l 519 764 m 269 232 q -35 -43 59 -43 q -75 -28 -60 -43 q -90 10 -90 -17 q -87 35 -90 26 q -64 113 -83 62 q -21 218 -50 148 q 81 517 81 468 q 62 535 81 534 l 41 532 l 33 562 q 228 681 176 681 q 258 668 246 681 q 267 637 267 656 q 183 391 267 599 q 95 155 96 178 l 98 142 q 103 142 100 142 q 257 288 148 142 q 452 646 369 437 l 519 660 l 581 674 l 594 661 q 377 121 377 180 q 406 90 377 90 q 425 92 418 90 l 467 102 l 467 64 q 261 -47 312 -47 q 224 -30 240 -47 q 210 13 214 -15 q 269 232 210 90 z "},"ü":{"ha":611,"x_min":-90,"x_max":656,"o":"m 589 831 q 500 804 547 804 q 459 809 486 804 q 404 831 439 814 l 515 944 q 608 919 554 926 q 656 918 618 918 q 589 831 635 861 m 351 832 q 329 818 351 832 q 261 804 308 804 q 245 804 253 804 q 219 809 237 805 q 165 831 201 812 l 275 944 q 344 924 294 935 q 416 918 374 918 q 351 832 394 861 m 269 231 q -35 -43 59 -43 q -75 -28 -60 -43 q -90 10 -90 -18 q -87 35 -90 26 q -64 112 -83 62 q -21 218 -50 148 q 81 517 81 467 q 62 534 81 534 l 41 532 l 33 562 q 228 680 176 680 q 258 667 246 680 q 267 636 267 654 q 251 568 267 616 q 235 519 245 550 q 183 391 233 512 q 95 155 96 178 l 98 142 q 103 142 100 142 q 257 288 148 142 q 452 645 369 437 l 519 659 l 581 673 l 594 661 q 377 121 377 180 q 406 90 377 90 q 425 92 418 90 l 467 102 l 467 64 q 261 -47 312 -47 q 224 -30 240 -47 q 210 12 214 -15 q 269 231 210 89 z "},"ý":{"ha":582,"x_min":-130,"x_max":633,"o":"m 406 778 l 290 763 l 448 964 l 633 985 l 406 778 m 269 222 q 104 48 186 119 q -31 -35 8 -35 q -76 28 -76 -35 q -33 182 -76 74 q 30 336 -2 259 q 87 523 87 488 q 73 538 87 538 l 60 536 l 39 530 l 28 561 q 104 623 60 589 q 225 695 195 695 q 270 637 270 695 q 207 448 270 606 q 98 147 99 178 l 101 135 q 107 134 103 134 q 254 278 152 134 q 441 637 355 422 l 584 699 l 595 696 l 604 685 q 574 621 595 663 q 379 149 464 397 q 231 -163 302 -76 q 86 -279 176 -229 q -56 -330 -3 -330 q -111 -304 -90 -330 q -130 -247 -130 -281 q 5 -56 -130 -162 l 28 -66 l 10 -116 l 6 -152 q 50 -227 6 -203 q 182 -19 117 -175 q 269 222 216 58 z "},"þ":{"ha":560,"x_min":-232,"x_max":553,"o":"m 232 529 q 372 642 307 600 q 497 695 457 695 q 539 677 523 695 q 553 627 553 657 q 313 132 553 396 q 194 20 255 67 q 110 -32 128 -32 q 84 1 92 -32 q 81 119 75 37 l 83 134 l 31 -7 q -45 -218 6 -78 q -83 -235 -59 -224 q -119 -254 -96 -241 q -232 -317 -163 -276 l -5 267 q 236 934 220 849 l 317 960 l 415 1002 q 347 819 393 932 l 232 529 m 378 556 q 364 563 372 563 q 257 481 324 563 q 143 276 186 397 l 143 273 q 167 157 143 207 q 203 114 186 114 q 221 123 209 114 q 234 138 226 129 q 249 157 239 144 q 338 336 295 224 q 385 530 385 458 q 378 556 385 546 z "},"ÿ":{"ha":582,"x_min":-130,"x_max":679,"o":"m 613 832 q 592 817 613 832 q 522 803 570 803 q 507 804 514 803 q 481 808 493 806 q 427 831 463 812 l 536 944 q 631 918 579 926 q 679 918 640 918 q 613 832 656 861 m 376 832 q 283 803 334 803 q 187 830 241 803 l 296 944 q 400 918 351 920 q 439 918 405 918 q 376 832 416 860 m 269 221 q 104 48 186 119 q -31 -35 8 -35 q -76 28 -76 -35 q -33 182 -76 74 q 30 336 -2 259 q 87 523 87 487 q 73 538 87 537 l 60 536 l 39 530 l 28 561 q 104 623 60 588 q 225 694 195 694 q 270 636 270 694 q 207 447 270 606 q 98 146 99 177 l 101 135 q 107 134 103 134 q 253 276 152 134 q 441 637 355 421 l 584 699 l 595 696 l 604 684 q 574 620 595 662 q 379 149 464 397 q 231 -163 302 -76 q 86 -279 176 -229 q -56 -330 -3 -330 q -111 -304 -90 -330 q -130 -247 -130 -281 q 5 -56 -130 -162 l 28 -66 l 10 -116 l 6 -152 q 50 -227 6 -203 q 182 -20 117 -175 q 269 221 216 58 z "},"∙":{"ha":379,"x_min":72,"x_max":254,"o":"m 163 317 q 99 341 126 317 q 72 397 72 365 q 98 454 72 431 q 163 478 125 478 q 227 454 201 478 q 254 397 254 431 q 225 340 254 363 q 163 317 197 317 z "}}}
